<mxfile host="65bd71144e">
    <diagram name="Attention" id="Gb4lJ7ihypdEUZic5cSe">
        <mxGraphModel dx="3145" dy="1280" grid="1" gridSize="10" guides="1" tooltips="1" connect="1" arrows="1" fold="1" page="1" pageScale="1" pageWidth="850" pageHeight="1100" background="none" math="0" shadow="0">
            <root>
                <mxCell id="IuttqhlB77bu6fsDmNeb-0"/>
                <mxCell id="IuttqhlB77bu6fsDmNeb-1" parent="IuttqhlB77bu6fsDmNeb-0"/>
                <mxCell id="0" value="" style="whiteSpace=wrap;html=1;fillColor=default;strokeColor=none;" parent="IuttqhlB77bu6fsDmNeb-1" vertex="1">
                    <mxGeometry x="-830" y="20" width="810" height="920" as="geometry"/>
                </mxCell>
                <UserObject label="" tags="MatMul" id="IuttqhlB77bu6fsDmNeb-12">
                    <mxCell style="edgeStyle=orthogonalEdgeStyle;hachureGap=4;html=1;exitX=1;exitY=0.5;exitDx=0;exitDy=0;entryX=0;entryY=0.5;entryDx=0;entryDy=0;fontFamily=Architects Daughter;fontSource=https%3A%2F%2Ffonts.googleapis.com%2Fcss%3Ffamily%3DArchitects%2BDaughter;fontSize=16;rounded=0;strokeColor=#B20000;curved=1;strokeWidth=3;fillColor=#e51400;" parent="IuttqhlB77bu6fsDmNeb-1" source="IuttqhlB77bu6fsDmNeb-13" target="IuttqhlB77bu6fsDmNeb-93" edge="1">
                        <mxGeometry relative="1" as="geometry"/>
                    </mxCell>
                </UserObject>
                <UserObject label="0,0" tags="S1" id="IuttqhlB77bu6fsDmNeb-13">
                    <mxCell style="rounded=0;whiteSpace=wrap;html=1;fillColor=#0050EF;fontColor=#F0F0F0;strokeColor=#001DBC;container=0;strokeWidth=2;" parent="IuttqhlB77bu6fsDmNeb-1" vertex="1">
                        <mxGeometry x="-478" y="200" width="40" height="40" as="geometry"/>
                    </mxCell>
                </UserObject>
                <UserObject label="" tags="MatMul" id="IuttqhlB77bu6fsDmNeb-14">
                    <mxCell style="edgeStyle=orthogonalEdgeStyle;hachureGap=4;html=1;exitX=1;exitY=0.5;exitDx=0;exitDy=0;entryX=0;entryY=0.5;entryDx=0;entryDy=0;fontFamily=Architects Daughter;fontSource=https%3A%2F%2Ffonts.googleapis.com%2Fcss%3Ffamily%3DArchitects%2BDaughter;fontSize=16;rounded=0;strokeColor=#B20000;curved=1;strokeWidth=3;fillColor=#e51400;" parent="IuttqhlB77bu6fsDmNeb-1" source="IuttqhlB77bu6fsDmNeb-15" target="IuttqhlB77bu6fsDmNeb-120" edge="1">
                        <mxGeometry relative="1" as="geometry"/>
                    </mxCell>
                </UserObject>
                <UserObject label="1,0" tags="S1" id="IuttqhlB77bu6fsDmNeb-15">
                    <mxCell style="rounded=0;whiteSpace=wrap;html=1;fillColor=#0050EF;fontColor=#F0F0F0;strokeColor=#001DBC;container=0;strokeWidth=2;" parent="IuttqhlB77bu6fsDmNeb-1" vertex="1">
                        <mxGeometry x="-478" y="320" width="40" height="40" as="geometry"/>
                    </mxCell>
                </UserObject>
                <UserObject label="" tags="MatMul" id="IuttqhlB77bu6fsDmNeb-16">
                    <mxCell style="edgeStyle=orthogonalEdgeStyle;hachureGap=4;html=1;exitX=1;exitY=0.5;exitDx=0;exitDy=0;entryX=0;entryY=0.5;entryDx=0;entryDy=0;fontFamily=Architects Daughter;fontSource=https%3A%2F%2Ffonts.googleapis.com%2Fcss%3Ffamily%3DArchitects%2BDaughter;fontSize=16;rounded=0;strokeColor=#B20000;curved=1;strokeWidth=3;fillColor=#e51400;" parent="IuttqhlB77bu6fsDmNeb-1" source="IuttqhlB77bu6fsDmNeb-17" target="IuttqhlB77bu6fsDmNeb-147" edge="1">
                        <mxGeometry relative="1" as="geometry"/>
                    </mxCell>
                </UserObject>
                <UserObject label="2,0" tags="D1" id="IuttqhlB77bu6fsDmNeb-17">
                    <mxCell style="rounded=0;whiteSpace=wrap;html=1;container=0;fillColor=#647687;fontColor=#F0F0F0;strokeColor=#314354;strokeWidth=2;" parent="IuttqhlB77bu6fsDmNeb-1" vertex="1">
                        <mxGeometry x="-478" y="440" width="40" height="40" as="geometry"/>
                    </mxCell>
                </UserObject>
                <UserObject label="" tags="MatMul" id="IuttqhlB77bu6fsDmNeb-18">
                    <mxCell style="edgeStyle=orthogonalEdgeStyle;hachureGap=4;html=1;exitX=1;exitY=0.5;exitDx=0;exitDy=0;entryX=0;entryY=0.5;entryDx=0;entryDy=0;fontFamily=Architects Daughter;fontSource=https%3A%2F%2Ffonts.googleapis.com%2Fcss%3Ffamily%3DArchitects%2BDaughter;fontSize=16;rounded=0;strokeColor=#B20000;curved=1;strokeWidth=3;fillColor=#e51400;" parent="IuttqhlB77bu6fsDmNeb-1" source="IuttqhlB77bu6fsDmNeb-19" target="IuttqhlB77bu6fsDmNeb-102" edge="1">
                        <mxGeometry relative="1" as="geometry"/>
                    </mxCell>
                </UserObject>
                <UserObject label="0,1" tags="S1" id="IuttqhlB77bu6fsDmNeb-19">
                    <mxCell style="rounded=0;whiteSpace=wrap;html=1;fillColor=#0050EF;fontColor=#F0F0F0;strokeColor=#001DBC;container=0;strokeWidth=2;" parent="IuttqhlB77bu6fsDmNeb-1" vertex="1">
                        <mxGeometry x="-478" y="240" width="40" height="40" as="geometry"/>
                    </mxCell>
                </UserObject>
                <UserObject label="" tags="MatMul" id="IuttqhlB77bu6fsDmNeb-20">
                    <mxCell style="edgeStyle=orthogonalEdgeStyle;hachureGap=4;html=1;exitX=1;exitY=0.5;exitDx=0;exitDy=0;entryX=0;entryY=0.5;entryDx=0;entryDy=0;fontFamily=Architects Daughter;fontSource=https%3A%2F%2Ffonts.googleapis.com%2Fcss%3Ffamily%3DArchitects%2BDaughter;fontSize=16;rounded=0;strokeColor=#B20000;curved=1;strokeWidth=3;fillColor=#e51400;" parent="IuttqhlB77bu6fsDmNeb-1" source="IuttqhlB77bu6fsDmNeb-21" target="IuttqhlB77bu6fsDmNeb-129" edge="1">
                        <mxGeometry relative="1" as="geometry"/>
                    </mxCell>
                </UserObject>
                <UserObject label="1,1" tags="D1" id="IuttqhlB77bu6fsDmNeb-21">
                    <mxCell style="rounded=0;whiteSpace=wrap;html=1;container=0;fillColor=#647687;fontColor=#F0F0F0;strokeColor=#314354;strokeWidth=2;" parent="IuttqhlB77bu6fsDmNeb-1" vertex="1">
                        <mxGeometry x="-478" y="360" width="40" height="40" as="geometry"/>
                    </mxCell>
                </UserObject>
                <UserObject label="" tags="MatMul" id="IuttqhlB77bu6fsDmNeb-22">
                    <mxCell style="edgeStyle=orthogonalEdgeStyle;hachureGap=4;html=1;exitX=1;exitY=0.5;exitDx=0;exitDy=0;entryX=0;entryY=0.5;entryDx=0;entryDy=0;fontFamily=Architects Daughter;fontSource=https%3A%2F%2Ffonts.googleapis.com%2Fcss%3Ffamily%3DArchitects%2BDaughter;fontSize=16;rounded=0;strokeColor=#B20000;curved=1;strokeWidth=3;fillColor=#e51400;" parent="IuttqhlB77bu6fsDmNeb-1" source="IuttqhlB77bu6fsDmNeb-23" target="IuttqhlB77bu6fsDmNeb-156" edge="1">
                        <mxGeometry relative="1" as="geometry"/>
                    </mxCell>
                </UserObject>
                <UserObject label="2,1" tags="D1" id="IuttqhlB77bu6fsDmNeb-23">
                    <mxCell style="rounded=0;whiteSpace=wrap;html=1;container=0;fillColor=#647687;fontColor=#F0F0F0;strokeColor=#314354;strokeWidth=2;" parent="IuttqhlB77bu6fsDmNeb-1" vertex="1">
                        <mxGeometry x="-478" y="480" width="40" height="40" as="geometry"/>
                    </mxCell>
                </UserObject>
                <UserObject label="" tags="MatMul" id="IuttqhlB77bu6fsDmNeb-24">
                    <mxCell style="edgeStyle=orthogonalEdgeStyle;hachureGap=4;html=1;exitX=1;exitY=0.5;exitDx=0;exitDy=0;entryX=0;entryY=0.5;entryDx=0;entryDy=0;fontFamily=Architects Daughter;fontSource=https%3A%2F%2Ffonts.googleapis.com%2Fcss%3Ffamily%3DArchitects%2BDaughter;fontSize=16;rounded=0;strokeColor=#B20000;curved=1;strokeWidth=3;fillColor=#e51400;" parent="IuttqhlB77bu6fsDmNeb-1" source="IuttqhlB77bu6fsDmNeb-25" target="IuttqhlB77bu6fsDmNeb-111" edge="1">
                        <mxGeometry relative="1" as="geometry"/>
                    </mxCell>
                </UserObject>
                <UserObject label="0,2" tags="S1" id="IuttqhlB77bu6fsDmNeb-25">
                    <mxCell style="rounded=0;whiteSpace=wrap;html=1;fillColor=#0050EF;fontColor=#F0F0F0;strokeColor=#001DBC;container=0;strokeWidth=2;" parent="IuttqhlB77bu6fsDmNeb-1" vertex="1">
                        <mxGeometry x="-478" y="280" width="40" height="40" as="geometry"/>
                    </mxCell>
                </UserObject>
                <UserObject label="" tags="MatMul" id="IuttqhlB77bu6fsDmNeb-26">
                    <mxCell style="edgeStyle=orthogonalEdgeStyle;hachureGap=4;html=1;exitX=1;exitY=0.5;exitDx=0;exitDy=0;entryX=0;entryY=0.5;entryDx=0;entryDy=0;fontFamily=Architects Daughter;fontSource=https%3A%2F%2Ffonts.googleapis.com%2Fcss%3Ffamily%3DArchitects%2BDaughter;fontSize=16;rounded=0;strokeColor=#B20000;curved=1;strokeWidth=3;fillColor=#e51400;" parent="IuttqhlB77bu6fsDmNeb-1" source="IuttqhlB77bu6fsDmNeb-27" target="IuttqhlB77bu6fsDmNeb-138" edge="1">
                        <mxGeometry relative="1" as="geometry"/>
                    </mxCell>
                </UserObject>
                <UserObject label="1,2" tags="D1" id="IuttqhlB77bu6fsDmNeb-27">
                    <mxCell style="rounded=0;whiteSpace=wrap;html=1;container=0;fillColor=#647687;fontColor=#F0F0F0;strokeColor=#314354;strokeWidth=2;" parent="IuttqhlB77bu6fsDmNeb-1" vertex="1">
                        <mxGeometry x="-478" y="400" width="40" height="40" as="geometry"/>
                    </mxCell>
                </UserObject>
                <UserObject label="" tags="MatMul" id="IuttqhlB77bu6fsDmNeb-28">
                    <mxCell style="edgeStyle=orthogonalEdgeStyle;hachureGap=4;html=1;exitX=1;exitY=0.5;exitDx=0;exitDy=0;entryX=0;entryY=0.5;entryDx=0;entryDy=0;fontFamily=Architects Daughter;fontSource=https%3A%2F%2Ffonts.googleapis.com%2Fcss%3Ffamily%3DArchitects%2BDaughter;fontSize=16;rounded=0;strokeColor=#B20000;curved=1;strokeWidth=3;fillColor=#e51400;" parent="IuttqhlB77bu6fsDmNeb-1" source="IuttqhlB77bu6fsDmNeb-29" target="IuttqhlB77bu6fsDmNeb-165" edge="1">
                        <mxGeometry relative="1" as="geometry"/>
                    </mxCell>
                </UserObject>
                <UserObject label="2,2" tags="D1" id="IuttqhlB77bu6fsDmNeb-29">
                    <mxCell style="rounded=0;whiteSpace=wrap;html=1;container=0;fillColor=#647687;fontColor=#F0F0F0;strokeColor=#314354;strokeWidth=2;" parent="IuttqhlB77bu6fsDmNeb-1" vertex="1">
                        <mxGeometry x="-478" y="520" width="40" height="40" as="geometry"/>
                    </mxCell>
                </UserObject>
                <UserObject label="0,0" tags="S2" id="IuttqhlB77bu6fsDmNeb-30">
                    <mxCell style="rounded=0;whiteSpace=wrap;html=1;strokeColor=#6C8EBF;fillColor=none;container=0;labelBackgroundColor=none;labelBorderColor=none;fontColor=#787878;strokeWidth=2;" parent="IuttqhlB77bu6fsDmNeb-1" vertex="1">
                        <mxGeometry x="-518" y="200" width="40" height="40" as="geometry"/>
                    </mxCell>
                </UserObject>
                <UserObject label="1,0" tags="S2" id="IuttqhlB77bu6fsDmNeb-31">
                    <mxCell style="rounded=0;whiteSpace=wrap;html=1;strokeColor=#6C8EBF;fillColor=none;container=0;labelBackgroundColor=none;labelBorderColor=none;fontColor=#787878;strokeWidth=2;" parent="IuttqhlB77bu6fsDmNeb-1" vertex="1">
                        <mxGeometry x="-518" y="320" width="40" height="40" as="geometry"/>
                    </mxCell>
                </UserObject>
                <UserObject label="2,0" tags="D2" id="IuttqhlB77bu6fsDmNeb-32">
                    <mxCell style="rounded=0;whiteSpace=wrap;html=1;fontColor=#787878;strokeColor=#787878;container=0;strokeWidth=2;fillColor=none;" parent="IuttqhlB77bu6fsDmNeb-1" vertex="1">
                        <mxGeometry x="-518" y="440" width="40" height="40" as="geometry"/>
                    </mxCell>
                </UserObject>
                <UserObject label="0,1" tags="S2" id="IuttqhlB77bu6fsDmNeb-33">
                    <mxCell style="rounded=0;whiteSpace=wrap;html=1;strokeColor=#6C8EBF;fillColor=none;container=0;labelBackgroundColor=none;labelBorderColor=none;fontColor=#787878;strokeWidth=2;" parent="IuttqhlB77bu6fsDmNeb-1" vertex="1">
                        <mxGeometry x="-518" y="240" width="40" height="40" as="geometry"/>
                    </mxCell>
                </UserObject>
                <UserObject label="1,1" tags="D2" id="IuttqhlB77bu6fsDmNeb-34">
                    <mxCell style="rounded=0;whiteSpace=wrap;html=1;fontColor=#787878;strokeColor=#787878;container=0;strokeWidth=2;fillColor=none;" parent="IuttqhlB77bu6fsDmNeb-1" vertex="1">
                        <mxGeometry x="-518" y="360" width="40" height="40" as="geometry"/>
                    </mxCell>
                </UserObject>
                <UserObject label="2,1" tags="D2" id="IuttqhlB77bu6fsDmNeb-35">
                    <mxCell style="rounded=0;whiteSpace=wrap;html=1;fontColor=#787878;strokeColor=#787878;container=0;strokeWidth=2;fillColor=none;" parent="IuttqhlB77bu6fsDmNeb-1" vertex="1">
                        <mxGeometry x="-518" y="480" width="40" height="40" as="geometry"/>
                    </mxCell>
                </UserObject>
                <UserObject label="0,2" tags="S2" id="IuttqhlB77bu6fsDmNeb-36">
                    <mxCell style="rounded=0;whiteSpace=wrap;html=1;strokeColor=#6C8EBF;fillColor=none;container=0;labelBackgroundColor=none;labelBorderColor=none;fontColor=#787878;strokeWidth=2;" parent="IuttqhlB77bu6fsDmNeb-1" vertex="1">
                        <mxGeometry x="-518" y="280" width="40" height="40" as="geometry"/>
                    </mxCell>
                </UserObject>
                <UserObject label="1,2" tags="D2" id="IuttqhlB77bu6fsDmNeb-37">
                    <mxCell style="rounded=0;whiteSpace=wrap;html=1;fontColor=#787878;strokeColor=#787878;container=0;strokeWidth=2;fillColor=none;" parent="IuttqhlB77bu6fsDmNeb-1" vertex="1">
                        <mxGeometry x="-518" y="400" width="40" height="40" as="geometry"/>
                    </mxCell>
                </UserObject>
                <UserObject label="2,2" tags="D2" id="IuttqhlB77bu6fsDmNeb-38">
                    <mxCell style="rounded=0;whiteSpace=wrap;html=1;fontColor=#787878;strokeColor=#787878;container=0;strokeWidth=2;fillColor=none;" parent="IuttqhlB77bu6fsDmNeb-1" vertex="1">
                        <mxGeometry x="-518" y="520" width="40" height="40" as="geometry"/>
                    </mxCell>
                </UserObject>
                <mxCell id="IuttqhlB77bu6fsDmNeb-39" value="&lt;font style=&quot;font-size: 24px;&quot;&gt;&lt;b style=&quot;font-size: 24px;&quot;&gt;Q&lt;/b&gt;&lt;/font&gt;" style="whiteSpace=wrap;html=1;rounded=0;strokeColor=none;fontSize=24;fontColor=default;labelBackgroundColor=none;fillColor=none;container=0;" parent="IuttqhlB77bu6fsDmNeb-1" vertex="1">
                    <mxGeometry x="-498" y="160" width="40" height="40" as="geometry"/>
                </mxCell>
                <UserObject label="" tags="MatMul" id="IuttqhlB77bu6fsDmNeb-193">
                    <mxCell style="edgeStyle=orthogonalEdgeStyle;hachureGap=4;html=1;exitX=0.5;exitY=1;exitDx=0;exitDy=0;entryX=0.5;entryY=0;entryDx=0;entryDy=0;fontFamily=Architects Daughter;fontSource=https%3A%2F%2Ffonts.googleapis.com%2Fcss%3Ffamily%3DArchitects%2BDaughter;fontSize=16;rounded=0;strokeColor=#B20000;curved=1;strokeWidth=3;fillColor=#e51400;" parent="IuttqhlB77bu6fsDmNeb-1" source="IuttqhlB77bu6fsDmNeb-165" target="IuttqhlB77bu6fsDmNeb-184" edge="1">
                        <mxGeometry relative="1" as="geometry"/>
                    </mxCell>
                </UserObject>
                <UserObject label="" tags="MatMul" id="IuttqhlB77bu6fsDmNeb-194">
                    <mxCell style="edgeStyle=orthogonalEdgeStyle;hachureGap=4;html=1;exitX=0.5;exitY=1;exitDx=0;exitDy=0;entryX=0.5;entryY=0;entryDx=0;entryDy=0;fontFamily=Architects Daughter;fontSource=https%3A%2F%2Ffonts.googleapis.com%2Fcss%3Ffamily%3DArchitects%2BDaughter;fontSize=16;rounded=0;strokeColor=#B20000;curved=1;strokeWidth=3;fillColor=#e51400;" parent="IuttqhlB77bu6fsDmNeb-1" source="IuttqhlB77bu6fsDmNeb-166" target="IuttqhlB77bu6fsDmNeb-187" edge="1">
                        <mxGeometry relative="1" as="geometry"/>
                    </mxCell>
                </UserObject>
                <UserObject label="" tags="MatMul" id="IuttqhlB77bu6fsDmNeb-195">
                    <mxCell style="edgeStyle=orthogonalEdgeStyle;hachureGap=4;html=1;exitX=0.5;exitY=1;exitDx=0;exitDy=0;entryX=0.5;entryY=0;entryDx=0;entryDy=0;fontFamily=Architects Daughter;fontSource=https%3A%2F%2Ffonts.googleapis.com%2Fcss%3Ffamily%3DArchitects%2BDaughter;fontSize=16;rounded=0;strokeColor=#B20000;curved=1;strokeWidth=3;fillColor=#e51400;" parent="IuttqhlB77bu6fsDmNeb-1" source="IuttqhlB77bu6fsDmNeb-167" target="IuttqhlB77bu6fsDmNeb-190" edge="1">
                        <mxGeometry relative="1" as="geometry"/>
                    </mxCell>
                </UserObject>
                <UserObject label="" tags="MatMul" id="IuttqhlB77bu6fsDmNeb-196">
                    <mxCell style="edgeStyle=orthogonalEdgeStyle;hachureGap=4;html=1;exitX=0.5;exitY=1;exitDx=0;exitDy=0;entryX=0.5;entryY=0;entryDx=0;entryDy=0;fontFamily=Architects Daughter;fontSource=https%3A%2F%2Ffonts.googleapis.com%2Fcss%3Ffamily%3DArchitects%2BDaughter;fontSize=16;rounded=0;strokeColor=#B20000;curved=1;strokeWidth=3;fillColor=#e51400;" parent="IuttqhlB77bu6fsDmNeb-1" source="IuttqhlB77bu6fsDmNeb-168" target="IuttqhlB77bu6fsDmNeb-185" edge="1">
                        <mxGeometry relative="1" as="geometry"/>
                    </mxCell>
                </UserObject>
                <UserObject label="" tags="MatMul" id="IuttqhlB77bu6fsDmNeb-197">
                    <mxCell style="edgeStyle=orthogonalEdgeStyle;hachureGap=4;html=1;exitX=0.5;exitY=1;exitDx=0;exitDy=0;entryX=0.5;entryY=0;entryDx=0;entryDy=0;fontFamily=Architects Daughter;fontSource=https%3A%2F%2Ffonts.googleapis.com%2Fcss%3Ffamily%3DArchitects%2BDaughter;fontSize=16;rounded=0;strokeColor=#B20000;curved=1;strokeWidth=3;fillColor=#e51400;" parent="IuttqhlB77bu6fsDmNeb-1" source="IuttqhlB77bu6fsDmNeb-169" target="IuttqhlB77bu6fsDmNeb-188" edge="1">
                        <mxGeometry relative="1" as="geometry"/>
                    </mxCell>
                </UserObject>
                <UserObject label="" tags="MatMul" id="IuttqhlB77bu6fsDmNeb-198">
                    <mxCell style="edgeStyle=orthogonalEdgeStyle;hachureGap=4;html=1;exitX=0.5;exitY=1;exitDx=0;exitDy=0;entryX=0.5;entryY=0;entryDx=0;entryDy=0;fontFamily=Architects Daughter;fontSource=https%3A%2F%2Ffonts.googleapis.com%2Fcss%3Ffamily%3DArchitects%2BDaughter;fontSize=16;rounded=0;strokeColor=#B20000;curved=1;strokeWidth=3;fillColor=#e51400;" parent="IuttqhlB77bu6fsDmNeb-1" source="IuttqhlB77bu6fsDmNeb-170" target="IuttqhlB77bu6fsDmNeb-191" edge="1">
                        <mxGeometry relative="1" as="geometry"/>
                    </mxCell>
                </UserObject>
                <UserObject label="" tags="MatMul" id="IuttqhlB77bu6fsDmNeb-199">
                    <mxCell style="edgeStyle=orthogonalEdgeStyle;hachureGap=4;html=1;exitX=0.5;exitY=1;exitDx=0;exitDy=0;entryX=0.5;entryY=0;entryDx=0;entryDy=0;fontFamily=Architects Daughter;fontSource=https%3A%2F%2Ffonts.googleapis.com%2Fcss%3Ffamily%3DArchitects%2BDaughter;fontSize=16;rounded=0;strokeColor=#B20000;curved=1;strokeWidth=3;fillColor=#e51400;" parent="IuttqhlB77bu6fsDmNeb-1" source="IuttqhlB77bu6fsDmNeb-171" target="IuttqhlB77bu6fsDmNeb-186" edge="1">
                        <mxGeometry relative="1" as="geometry"/>
                    </mxCell>
                </UserObject>
                <UserObject label="" tags="MatMul" id="IuttqhlB77bu6fsDmNeb-200">
                    <mxCell style="edgeStyle=orthogonalEdgeStyle;hachureGap=4;html=1;exitX=0.5;exitY=1;exitDx=0;exitDy=0;entryX=0.5;entryY=0;entryDx=0;entryDy=0;fontFamily=Architects Daughter;fontSource=https%3A%2F%2Ffonts.googleapis.com%2Fcss%3Ffamily%3DArchitects%2BDaughter;fontSize=16;rounded=0;strokeColor=#B20000;curved=1;strokeWidth=3;fillColor=#e51400;" parent="IuttqhlB77bu6fsDmNeb-1" source="IuttqhlB77bu6fsDmNeb-172" target="IuttqhlB77bu6fsDmNeb-189" edge="1">
                        <mxGeometry relative="1" as="geometry"/>
                    </mxCell>
                </UserObject>
                <UserObject label="" tags="MatMul" id="IuttqhlB77bu6fsDmNeb-201">
                    <mxCell style="edgeStyle=orthogonalEdgeStyle;hachureGap=4;html=1;exitX=0.5;exitY=1;exitDx=0;exitDy=0;entryX=0.5;entryY=0;entryDx=0;entryDy=0;fontFamily=Architects Daughter;fontSource=https%3A%2F%2Ffonts.googleapis.com%2Fcss%3Ffamily%3DArchitects%2BDaughter;fontSize=16;rounded=0;strokeColor=#B20000;curved=1;strokeWidth=3;fillColor=#e51400;" parent="IuttqhlB77bu6fsDmNeb-1" source="IuttqhlB77bu6fsDmNeb-173" target="IuttqhlB77bu6fsDmNeb-192" edge="1">
                        <mxGeometry relative="1" as="geometry"/>
                    </mxCell>
                </UserObject>
                <UserObject label="" tags="MatMul" id="IuttqhlB77bu6fsDmNeb-202">
                    <mxCell style="edgeStyle=orthogonalEdgeStyle;hachureGap=4;html=1;exitX=1;exitY=0.5;exitDx=0;exitDy=0;entryX=0;entryY=0.5;entryDx=0;entryDy=0;fontFamily=Architects Daughter;fontSource=https%3A%2F%2Ffonts.googleapis.com%2Fcss%3Ffamily%3DArchitects%2BDaughter;fontSize=16;rounded=0;strokeColor=#B20000;curved=1;strokeWidth=3;fillColor=#e51400;" parent="IuttqhlB77bu6fsDmNeb-1" source="IuttqhlB77bu6fsDmNeb-70" target="IuttqhlB77bu6fsDmNeb-184" edge="1">
                        <mxGeometry relative="1" as="geometry"/>
                    </mxCell>
                </UserObject>
                <UserObject label="" tags="MatMul" id="IuttqhlB77bu6fsDmNeb-203">
                    <mxCell style="edgeStyle=orthogonalEdgeStyle;hachureGap=4;html=1;exitX=1;exitY=0.5;exitDx=0;exitDy=0;entryX=0;entryY=0.5;entryDx=0;entryDy=0;fontFamily=Architects Daughter;fontSource=https%3A%2F%2Ffonts.googleapis.com%2Fcss%3Ffamily%3DArchitects%2BDaughter;fontSize=16;rounded=0;strokeColor=#B20000;curved=1;strokeWidth=3;fillColor=#e51400;" parent="IuttqhlB77bu6fsDmNeb-1" source="IuttqhlB77bu6fsDmNeb-61" target="IuttqhlB77bu6fsDmNeb-175" edge="1">
                        <mxGeometry relative="1" as="geometry"/>
                    </mxCell>
                </UserObject>
                <UserObject label="" tags="MatMul" id="IuttqhlB77bu6fsDmNeb-204">
                    <mxCell style="edgeStyle=orthogonalEdgeStyle;hachureGap=4;html=1;exitX=0.5;exitY=1;exitDx=0;exitDy=0;entryX=0.5;entryY=0;entryDx=0;entryDy=0;fontFamily=Architects Daughter;fontSource=https%3A%2F%2Ffonts.googleapis.com%2Fcss%3Ffamily%3DArchitects%2BDaughter;fontSize=16;rounded=0;strokeColor=#B20000;curved=1;strokeWidth=3;fillColor=#e51400;" parent="IuttqhlB77bu6fsDmNeb-1" source="IuttqhlB77bu6fsDmNeb-73" target="IuttqhlB77bu6fsDmNeb-93" edge="1">
                        <mxGeometry relative="1" as="geometry"/>
                    </mxCell>
                </UserObject>
                <UserObject label="" tags="MatMul" id="IuttqhlB77bu6fsDmNeb-205">
                    <mxCell style="edgeStyle=orthogonalEdgeStyle;hachureGap=4;html=1;exitX=0.5;exitY=1;exitDx=0;exitDy=0;entryX=0.5;entryY=0;entryDx=0;entryDy=0;fontFamily=Architects Daughter;fontSource=https%3A%2F%2Ffonts.googleapis.com%2Fcss%3Ffamily%3DArchitects%2BDaughter;fontSize=16;rounded=0;strokeColor=#B20000;curved=1;strokeWidth=3;fillColor=#e51400;" parent="IuttqhlB77bu6fsDmNeb-1" source="IuttqhlB77bu6fsDmNeb-76" target="IuttqhlB77bu6fsDmNeb-94" edge="1">
                        <mxGeometry relative="1" as="geometry"/>
                    </mxCell>
                </UserObject>
                <UserObject label="" tags="MatMul" id="IuttqhlB77bu6fsDmNeb-206">
                    <mxCell style="edgeStyle=orthogonalEdgeStyle;hachureGap=4;html=1;exitX=0.5;exitY=1;exitDx=0;exitDy=0;entryX=0.5;entryY=0;entryDx=0;entryDy=0;fontFamily=Architects Daughter;fontSource=https%3A%2F%2Ffonts.googleapis.com%2Fcss%3Ffamily%3DArchitects%2BDaughter;fontSize=16;rounded=0;strokeColor=#B20000;curved=1;strokeWidth=3;fillColor=#e51400;" parent="IuttqhlB77bu6fsDmNeb-1" source="IuttqhlB77bu6fsDmNeb-79" target="IuttqhlB77bu6fsDmNeb-95" edge="1">
                        <mxGeometry relative="1" as="geometry"/>
                    </mxCell>
                </UserObject>
                <UserObject label="" tags="MatMul" id="IuttqhlB77bu6fsDmNeb-207">
                    <mxCell style="edgeStyle=orthogonalEdgeStyle;hachureGap=4;html=1;exitX=0.5;exitY=1;exitDx=0;exitDy=0;entryX=0.5;entryY=0;entryDx=0;entryDy=0;fontFamily=Architects Daughter;fontSource=https%3A%2F%2Ffonts.googleapis.com%2Fcss%3Ffamily%3DArchitects%2BDaughter;fontSize=16;rounded=0;strokeColor=#B20000;curved=1;strokeWidth=3;fillColor=#e51400;" parent="IuttqhlB77bu6fsDmNeb-1" source="IuttqhlB77bu6fsDmNeb-74" target="IuttqhlB77bu6fsDmNeb-96" edge="1">
                        <mxGeometry relative="1" as="geometry"/>
                    </mxCell>
                </UserObject>
                <UserObject label="" tags="MatMul" id="IuttqhlB77bu6fsDmNeb-208">
                    <mxCell style="edgeStyle=orthogonalEdgeStyle;hachureGap=4;html=1;exitX=0.5;exitY=1;exitDx=0;exitDy=0;entryX=0.5;entryY=0;entryDx=0;entryDy=0;fontFamily=Architects Daughter;fontSource=https%3A%2F%2Ffonts.googleapis.com%2Fcss%3Ffamily%3DArchitects%2BDaughter;fontSize=16;rounded=0;strokeColor=#B20000;curved=1;strokeWidth=3;fillColor=#e51400;" parent="IuttqhlB77bu6fsDmNeb-1" source="IuttqhlB77bu6fsDmNeb-77" target="IuttqhlB77bu6fsDmNeb-97" edge="1">
                        <mxGeometry relative="1" as="geometry"/>
                    </mxCell>
                </UserObject>
                <UserObject label="" tags="MatMul" id="IuttqhlB77bu6fsDmNeb-209">
                    <mxCell style="edgeStyle=orthogonalEdgeStyle;hachureGap=4;html=1;exitX=0.5;exitY=1;exitDx=0;exitDy=0;entryX=0.5;entryY=0;entryDx=0;entryDy=0;fontFamily=Architects Daughter;fontSource=https%3A%2F%2Ffonts.googleapis.com%2Fcss%3Ffamily%3DArchitects%2BDaughter;fontSize=16;rounded=0;strokeColor=#B20000;curved=1;strokeWidth=3;fillColor=#e51400;" parent="IuttqhlB77bu6fsDmNeb-1" source="IuttqhlB77bu6fsDmNeb-80" target="IuttqhlB77bu6fsDmNeb-98" edge="1">
                        <mxGeometry relative="1" as="geometry"/>
                    </mxCell>
                </UserObject>
                <UserObject label="" tags="MatMul" id="IuttqhlB77bu6fsDmNeb-210">
                    <mxCell style="edgeStyle=orthogonalEdgeStyle;hachureGap=4;html=1;exitX=0.5;exitY=1;exitDx=0;exitDy=0;entryX=0.5;entryY=0;entryDx=0;entryDy=0;fontFamily=Architects Daughter;fontSource=https%3A%2F%2Ffonts.googleapis.com%2Fcss%3Ffamily%3DArchitects%2BDaughter;fontSize=16;rounded=0;strokeColor=#B20000;curved=1;strokeWidth=3;fillColor=#e51400;" parent="IuttqhlB77bu6fsDmNeb-1" source="IuttqhlB77bu6fsDmNeb-75" target="IuttqhlB77bu6fsDmNeb-99" edge="1">
                        <mxGeometry relative="1" as="geometry"/>
                    </mxCell>
                </UserObject>
                <UserObject label="" tags="MatMul" id="IuttqhlB77bu6fsDmNeb-211">
                    <mxCell style="edgeStyle=orthogonalEdgeStyle;hachureGap=4;html=1;exitX=0.5;exitY=1;exitDx=0;exitDy=0;entryX=0.5;entryY=0;entryDx=0;entryDy=0;fontFamily=Architects Daughter;fontSource=https%3A%2F%2Ffonts.googleapis.com%2Fcss%3Ffamily%3DArchitects%2BDaughter;fontSize=16;rounded=0;strokeColor=#B20000;curved=1;strokeWidth=3;fillColor=#e51400;" parent="IuttqhlB77bu6fsDmNeb-1" source="IuttqhlB77bu6fsDmNeb-78" target="IuttqhlB77bu6fsDmNeb-100" edge="1">
                        <mxGeometry relative="1" as="geometry"/>
                    </mxCell>
                </UserObject>
                <UserObject label="" tags="MatMul" id="IuttqhlB77bu6fsDmNeb-212">
                    <mxCell style="edgeStyle=orthogonalEdgeStyle;hachureGap=4;html=1;exitX=0.5;exitY=1;exitDx=0;exitDy=0;entryX=0.5;entryY=0;entryDx=0;entryDy=0;fontFamily=Architects Daughter;fontSource=https%3A%2F%2Ffonts.googleapis.com%2Fcss%3Ffamily%3DArchitects%2BDaughter;fontSize=16;rounded=0;strokeColor=#B20000;curved=1;strokeWidth=3;fillColor=#e51400;" parent="IuttqhlB77bu6fsDmNeb-1" source="IuttqhlB77bu6fsDmNeb-81" target="IuttqhlB77bu6fsDmNeb-101" edge="1">
                        <mxGeometry relative="1" as="geometry"/>
                    </mxCell>
                </UserObject>
                <UserObject label="" tags="Reshape" id="IuttqhlB77bu6fsDmNeb-213">
                    <mxCell style="edgeStyle=orthogonalEdgeStyle;hachureGap=4;html=1;exitX=0.25;exitY=0;exitDx=0;exitDy=0;entryX=0;entryY=0.5;entryDx=0;entryDy=0;fontFamily=Architects Daughter;fontSource=https%3A%2F%2Ffonts.googleapis.com%2Fcss%3Ffamily%3DArchitects%2BDaughter;fontSize=16;curved=1;rounded=0;strokeColor=#001DBC;strokeWidth=3;fillColor=#0050ef;dashed=1;" parent="IuttqhlB77bu6fsDmNeb-1" source="IuttqhlB77bu6fsDmNeb-51" target="IuttqhlB77bu6fsDmNeb-91" edge="1">
                        <mxGeometry relative="1" as="geometry"/>
                    </mxCell>
                </UserObject>
                <UserObject label="" tags="Reshape" id="IuttqhlB77bu6fsDmNeb-214">
                    <mxCell style="edgeStyle=orthogonalEdgeStyle;curved=1;hachureGap=4;html=1;exitX=0.75;exitY=0;exitDx=0;exitDy=0;entryX=0;entryY=0.5;entryDx=0;entryDy=0;fontFamily=Architects Daughter;fontSource=https%3A%2F%2Ffonts.googleapis.com%2Fcss%3Ffamily%3DArchitects%2BDaughter;fontSize=16;rounded=0;strokeColor=#001DBC;strokeWidth=3;fillColor=#0050ef;dashed=1;" parent="IuttqhlB77bu6fsDmNeb-1" source="IuttqhlB77bu6fsDmNeb-51" target="IuttqhlB77bu6fsDmNeb-39" edge="1">
                        <mxGeometry relative="1" as="geometry"/>
                    </mxCell>
                </UserObject>
                <UserObject label="" tags="Reshape" id="IuttqhlB77bu6fsDmNeb-215">
                    <mxCell style="edgeStyle=orthogonalEdgeStyle;curved=1;hachureGap=4;html=1;exitX=1;exitY=0.25;exitDx=0;exitDy=0;entryX=0.5;entryY=0;entryDx=0;entryDy=0;fontFamily=Architects Daughter;fontSource=https%3A%2F%2Ffonts.googleapis.com%2Fcss%3Ffamily%3DArchitects%2BDaughter;fontSize=16;rounded=0;strokeColor=#001DBC;strokeWidth=3;fillColor=#0050ef;dashed=1;" parent="IuttqhlB77bu6fsDmNeb-1" source="IuttqhlB77bu6fsDmNeb-51" target="IuttqhlB77bu6fsDmNeb-71" edge="1">
                        <mxGeometry relative="1" as="geometry"/>
                    </mxCell>
                </UserObject>
                <UserObject label="" tags="Reshape" id="IuttqhlB77bu6fsDmNeb-238">
                    <mxCell style="edgeStyle=orthogonalEdgeStyle;curved=1;hachureGap=4;html=1;exitX=0.5;exitY=1;exitDx=0;exitDy=0;entryX=0.5;entryY=0;entryDx=0;entryDy=0;fontFamily=Architects Daughter;fontSource=https%3A%2F%2Ffonts.googleapis.com%2Fcss%3Ffamily%3DArchitects%2BDaughter;fontSize=16;rounded=0;strokeColor=#001DBC;strokeWidth=3;fillColor=#0050ef;dashed=1;" parent="IuttqhlB77bu6fsDmNeb-1" source="IuttqhlB77bu6fsDmNeb-179" target="IuttqhlB77bu6fsDmNeb-237" edge="1">
                        <mxGeometry relative="1" as="geometry"/>
                    </mxCell>
                </UserObject>
                <mxCell id="IuttqhlB77bu6fsDmNeb-239" value="&lt;div style=&quot;&quot;&gt;&lt;font style=&quot;font-size: 23px;&quot;&gt;Reshape&lt;/font&gt;&lt;/div&gt;&lt;blockquote style=&quot;margin: 0 0 0 40px; border: none; padding: 0px;&quot;&gt;&lt;/blockquote&gt;&lt;blockquote style=&quot;margin: 0 0 0 40px; border: none; padding: 0px;&quot;&gt;&lt;/blockquote&gt;" style="whiteSpace=wrap;html=1;hachureGap=4;fontFamily=Courier New;fontSize=12;align=left;labelBackgroundColor=none;labelBorderColor=none;portConstraintRotation=0;connectable=1;fixDash=0;container=0;dropTarget=0;collapsible=0;metaEdit=0;movableLabel=1;autosize=0;rounded=0;fillColor=none;strokeColor=none;fontColor=default;" parent="IuttqhlB77bu6fsDmNeb-1" vertex="1">
                    <mxGeometry x="-803" y="50" width="102" height="50" as="geometry">
                        <mxPoint x="-2" y="11" as="offset"/>
                    </mxGeometry>
                </mxCell>
                <UserObject label="0,0" tags="S2" id="IuttqhlB77bu6fsDmNeb-3">
                    <mxCell style="rounded=0;whiteSpace=wrap;html=1;strokeColor=#6C8EBF;fillColor=none;container=0;labelBackgroundColor=none;labelBorderColor=none;fontColor=#787878;strokeWidth=2;" parent="IuttqhlB77bu6fsDmNeb-1" vertex="1">
                        <mxGeometry x="-813" y="470" width="40" height="40" as="geometry"/>
                    </mxCell>
                </UserObject>
                <UserObject label="1,0" tags="S2" id="IuttqhlB77bu6fsDmNeb-4">
                    <mxCell style="rounded=0;whiteSpace=wrap;html=1;strokeColor=#6C8EBF;fillColor=none;container=0;labelBackgroundColor=none;labelBorderColor=none;fontColor=#787878;strokeWidth=2;" parent="IuttqhlB77bu6fsDmNeb-1" vertex="1">
                        <mxGeometry x="-813" y="510" width="40" height="40" as="geometry"/>
                    </mxCell>
                </UserObject>
                <UserObject label="2,0" tags="D2" id="IuttqhlB77bu6fsDmNeb-5">
                    <mxCell style="rounded=0;whiteSpace=wrap;html=1;strokeColor=#787878;container=0;strokeWidth=2;fillColor=none;fontColor=#787878;" parent="IuttqhlB77bu6fsDmNeb-1" vertex="1">
                        <mxGeometry x="-813" y="550" width="40" height="40" as="geometry"/>
                    </mxCell>
                </UserObject>
                <UserObject label="0,1" tags="S2" id="IuttqhlB77bu6fsDmNeb-6">
                    <mxCell style="rounded=0;whiteSpace=wrap;html=1;strokeColor=#6C8EBF;fillColor=none;container=0;labelBackgroundColor=none;labelBorderColor=none;fontColor=#787878;strokeWidth=2;" parent="IuttqhlB77bu6fsDmNeb-1" vertex="1">
                        <mxGeometry x="-773" y="470" width="40" height="40" as="geometry"/>
                    </mxCell>
                </UserObject>
                <UserObject label="1,1" tags="D2" id="IuttqhlB77bu6fsDmNeb-7">
                    <mxCell style="rounded=0;whiteSpace=wrap;html=1;strokeColor=#787878;container=0;strokeWidth=2;fillColor=none;fontColor=#787878;" parent="IuttqhlB77bu6fsDmNeb-1" vertex="1">
                        <mxGeometry x="-773" y="510" width="40" height="40" as="geometry"/>
                    </mxCell>
                </UserObject>
                <UserObject label="2,1" tags="D2" id="IuttqhlB77bu6fsDmNeb-8">
                    <mxCell style="rounded=0;whiteSpace=wrap;html=1;strokeColor=#787878;container=0;strokeWidth=2;fillColor=none;fontColor=#787878;" parent="IuttqhlB77bu6fsDmNeb-1" vertex="1">
                        <mxGeometry x="-773" y="550" width="40" height="40" as="geometry"/>
                    </mxCell>
                </UserObject>
                <UserObject label="0,2" tags="S2" id="IuttqhlB77bu6fsDmNeb-9">
                    <mxCell style="rounded=0;whiteSpace=wrap;html=1;strokeColor=#6C8EBF;fillColor=none;container=0;labelBackgroundColor=none;labelBorderColor=none;fontColor=#787878;strokeWidth=2;" parent="IuttqhlB77bu6fsDmNeb-1" vertex="1">
                        <mxGeometry x="-733" y="470" width="40" height="40" as="geometry"/>
                    </mxCell>
                </UserObject>
                <UserObject label="1,2" tags="D2" id="IuttqhlB77bu6fsDmNeb-10">
                    <mxCell style="rounded=0;whiteSpace=wrap;html=1;strokeColor=#787878;container=0;strokeWidth=2;fillColor=none;fontColor=#787878;" parent="IuttqhlB77bu6fsDmNeb-1" vertex="1">
                        <mxGeometry x="-733" y="510" width="40" height="40" as="geometry"/>
                    </mxCell>
                </UserObject>
                <UserObject label="2,2" tags="D2" id="IuttqhlB77bu6fsDmNeb-11">
                    <mxCell style="rounded=0;whiteSpace=wrap;html=1;strokeColor=#787878;container=0;strokeWidth=2;fillColor=none;fontColor=#787878;" parent="IuttqhlB77bu6fsDmNeb-1" vertex="1">
                        <mxGeometry x="-733" y="550" width="40" height="40" as="geometry"/>
                    </mxCell>
                </UserObject>
                <mxCell id="IuttqhlB77bu6fsDmNeb-51" value="&lt;font style=&quot;font-size: 24px;&quot;&gt;&lt;b style=&quot;font-size: 24px;&quot;&gt;X&lt;/b&gt;&lt;/font&gt;" style="whiteSpace=wrap;html=1;rounded=0;strokeColor=none;fontSize=24;fontColor=default;labelBackgroundColor=none;fillColor=none;container=0;" parent="IuttqhlB77bu6fsDmNeb-1" vertex="1">
                    <mxGeometry x="-758" y="440" width="40" height="40" as="geometry"/>
                </mxCell>
                <UserObject label="0,0" tags="S1" id="IuttqhlB77bu6fsDmNeb-53">
                    <mxCell style="rounded=0;whiteSpace=wrap;html=1;fillColor=#0050EF;fontColor=#F0F0F0;strokeColor=#001DBC;container=0;strokeWidth=2;" parent="IuttqhlB77bu6fsDmNeb-1" vertex="1">
                        <mxGeometry x="-798" y="680" width="40" height="40" as="geometry"/>
                    </mxCell>
                </UserObject>
                <UserObject label="1,0" tags="S1" id="IuttqhlB77bu6fsDmNeb-54">
                    <mxCell style="rounded=0;whiteSpace=wrap;html=1;fillColor=#0050EF;fontColor=#F0F0F0;strokeColor=#001DBC;container=0;strokeWidth=2;" parent="IuttqhlB77bu6fsDmNeb-1" vertex="1">
                        <mxGeometry x="-678" y="680" width="40" height="40" as="geometry"/>
                    </mxCell>
                </UserObject>
                <UserObject label="2,0" tags="D1" id="IuttqhlB77bu6fsDmNeb-55">
                    <mxCell style="rounded=0;whiteSpace=wrap;html=1;container=0;fillColor=#647687;fontColor=#F0F0F0;strokeColor=#314354;strokeWidth=2;" parent="IuttqhlB77bu6fsDmNeb-1" vertex="1">
                        <mxGeometry x="-558" y="680" width="40" height="40" as="geometry"/>
                    </mxCell>
                </UserObject>
                <UserObject label="0,1" tags="S1" id="IuttqhlB77bu6fsDmNeb-56">
                    <mxCell style="rounded=0;whiteSpace=wrap;html=1;fillColor=#0050EF;fontColor=#F0F0F0;strokeColor=#001DBC;container=0;strokeWidth=2;" parent="IuttqhlB77bu6fsDmNeb-1" vertex="1">
                        <mxGeometry x="-758" y="680" width="40" height="40" as="geometry"/>
                    </mxCell>
                </UserObject>
                <UserObject label="1,1" tags="D1" id="IuttqhlB77bu6fsDmNeb-57">
                    <mxCell style="rounded=0;whiteSpace=wrap;html=1;container=0;fillColor=#647687;fontColor=#F0F0F0;strokeColor=#314354;strokeWidth=2;" parent="IuttqhlB77bu6fsDmNeb-1" vertex="1">
                        <mxGeometry x="-638" y="680" width="40" height="40" as="geometry"/>
                    </mxCell>
                </UserObject>
                <UserObject label="2,1" tags="D1" id="IuttqhlB77bu6fsDmNeb-58">
                    <mxCell style="rounded=0;whiteSpace=wrap;html=1;container=0;fillColor=#647687;fontColor=#F0F0F0;strokeColor=#314354;strokeWidth=2;" parent="IuttqhlB77bu6fsDmNeb-1" vertex="1">
                        <mxGeometry x="-518" y="680" width="40" height="40" as="geometry"/>
                    </mxCell>
                </UserObject>
                <UserObject label="0,2" tags="S1" id="IuttqhlB77bu6fsDmNeb-59">
                    <mxCell style="rounded=0;whiteSpace=wrap;html=1;fillColor=#0050EF;fontColor=#F0F0F0;strokeColor=#001DBC;container=0;strokeWidth=2;" parent="IuttqhlB77bu6fsDmNeb-1" vertex="1">
                        <mxGeometry x="-718" y="680" width="40" height="40" as="geometry"/>
                    </mxCell>
                </UserObject>
                <UserObject label="1,2" tags="D1" id="IuttqhlB77bu6fsDmNeb-60">
                    <mxCell style="rounded=0;whiteSpace=wrap;html=1;container=0;fillColor=#647687;fontColor=#F0F0F0;strokeColor=#314354;strokeWidth=2;" parent="IuttqhlB77bu6fsDmNeb-1" vertex="1">
                        <mxGeometry x="-598" y="680" width="40" height="40" as="geometry"/>
                    </mxCell>
                </UserObject>
                <UserObject label="2,2" tags="D1" id="IuttqhlB77bu6fsDmNeb-61">
                    <mxCell style="rounded=0;whiteSpace=wrap;html=1;container=0;fillColor=#647687;fontColor=#F0F0F0;strokeColor=#314354;strokeWidth=2;" parent="IuttqhlB77bu6fsDmNeb-1" vertex="1">
                        <mxGeometry x="-478" y="680" width="40" height="40" as="geometry"/>
                    </mxCell>
                </UserObject>
                <UserObject label="0,0" tags="S2" id="IuttqhlB77bu6fsDmNeb-62">
                    <mxCell style="rounded=0;whiteSpace=wrap;html=1;strokeColor=#6C8EBF;fillColor=none;container=0;labelBackgroundColor=none;labelBorderColor=none;fontColor=#787878;strokeWidth=2;" parent="IuttqhlB77bu6fsDmNeb-1" vertex="1">
                        <mxGeometry x="-798" y="640" width="40" height="40" as="geometry"/>
                    </mxCell>
                </UserObject>
                <UserObject label="1,0" tags="S2" id="IuttqhlB77bu6fsDmNeb-63">
                    <mxCell style="rounded=0;whiteSpace=wrap;html=1;strokeColor=#6C8EBF;fillColor=none;container=0;labelBackgroundColor=none;labelBorderColor=none;fontColor=#787878;strokeWidth=2;" parent="IuttqhlB77bu6fsDmNeb-1" vertex="1">
                        <mxGeometry x="-678" y="640" width="40" height="40" as="geometry"/>
                    </mxCell>
                </UserObject>
                <UserObject label="2,0" tags="D2" id="IuttqhlB77bu6fsDmNeb-64">
                    <mxCell style="rounded=0;whiteSpace=wrap;html=1;fontColor=#787878;strokeColor=#787878;container=0;strokeWidth=2;fillColor=none;" parent="IuttqhlB77bu6fsDmNeb-1" vertex="1">
                        <mxGeometry x="-558" y="640" width="40" height="40" as="geometry"/>
                    </mxCell>
                </UserObject>
                <UserObject label="0,1" tags="S2" id="IuttqhlB77bu6fsDmNeb-65">
                    <mxCell style="rounded=0;whiteSpace=wrap;html=1;strokeColor=#6C8EBF;fillColor=none;container=0;labelBackgroundColor=none;labelBorderColor=none;fontColor=#787878;strokeWidth=2;" parent="IuttqhlB77bu6fsDmNeb-1" vertex="1">
                        <mxGeometry x="-758" y="640" width="40" height="40" as="geometry"/>
                    </mxCell>
                </UserObject>
                <UserObject label="1,1" tags="D2" id="IuttqhlB77bu6fsDmNeb-66">
                    <mxCell style="rounded=0;whiteSpace=wrap;html=1;fontColor=#787878;strokeColor=#787878;container=0;strokeWidth=2;fillColor=none;" parent="IuttqhlB77bu6fsDmNeb-1" vertex="1">
                        <mxGeometry x="-638" y="640" width="40" height="40" as="geometry"/>
                    </mxCell>
                </UserObject>
                <UserObject label="2,1" tags="D2" id="IuttqhlB77bu6fsDmNeb-67">
                    <mxCell style="rounded=0;whiteSpace=wrap;html=1;fontColor=#787878;strokeColor=#787878;container=0;strokeWidth=2;fillColor=none;" parent="IuttqhlB77bu6fsDmNeb-1" vertex="1">
                        <mxGeometry x="-518" y="640" width="40" height="40" as="geometry"/>
                    </mxCell>
                </UserObject>
                <UserObject label="0,2" tags="S2" id="IuttqhlB77bu6fsDmNeb-68">
                    <mxCell style="rounded=0;whiteSpace=wrap;html=1;strokeColor=#6C8EBF;fillColor=none;container=0;labelBackgroundColor=none;labelBorderColor=none;fontColor=#787878;strokeWidth=2;" parent="IuttqhlB77bu6fsDmNeb-1" vertex="1">
                        <mxGeometry x="-718" y="640" width="40" height="40" as="geometry"/>
                    </mxCell>
                </UserObject>
                <UserObject label="1,2" tags="D2" id="IuttqhlB77bu6fsDmNeb-69">
                    <mxCell style="rounded=0;whiteSpace=wrap;html=1;fontColor=#787878;strokeColor=#787878;container=0;strokeWidth=2;fillColor=none;" parent="IuttqhlB77bu6fsDmNeb-1" vertex="1">
                        <mxGeometry x="-598" y="640" width="40" height="40" as="geometry"/>
                    </mxCell>
                </UserObject>
                <UserObject label="2,2" tags="D2" id="IuttqhlB77bu6fsDmNeb-70">
                    <mxCell style="rounded=0;whiteSpace=wrap;html=1;fontColor=#787878;strokeColor=#787878;container=0;strokeWidth=2;fillColor=none;" parent="IuttqhlB77bu6fsDmNeb-1" vertex="1">
                        <mxGeometry x="-478" y="640" width="40" height="40" as="geometry"/>
                    </mxCell>
                </UserObject>
                <mxCell id="IuttqhlB77bu6fsDmNeb-71" value="&lt;font style=&quot;font-size: 24px;&quot;&gt;&lt;b style=&quot;font-size: 24px;&quot;&gt;V&lt;/b&gt;&lt;/font&gt;" style="whiteSpace=wrap;html=1;rounded=0;strokeColor=none;fontSize=24;fontColor=default;labelBackgroundColor=none;fillColor=none;container=0;" parent="IuttqhlB77bu6fsDmNeb-1" vertex="1">
                    <mxGeometry x="-638" y="600" width="40" height="40" as="geometry"/>
                </mxCell>
                <UserObject label="0,0" tags="D1" id="IuttqhlB77bu6fsDmNeb-73">
                    <mxCell style="rounded=0;whiteSpace=wrap;html=1;container=0;fillColor=#647687;fontColor=#F0F0F0;strokeColor=#314354;strokeWidth=2;" parent="IuttqhlB77bu6fsDmNeb-1" vertex="1">
                        <mxGeometry x="-398" y="120" width="40" height="40" as="geometry"/>
                    </mxCell>
                </UserObject>
                <UserObject label="1,0" tags="D1" id="IuttqhlB77bu6fsDmNeb-74">
                    <mxCell style="rounded=0;whiteSpace=wrap;html=1;container=0;fillColor=#647687;fontColor=#F0F0F0;strokeColor=#314354;strokeWidth=2;" parent="IuttqhlB77bu6fsDmNeb-1" vertex="1">
                        <mxGeometry x="-278" y="120" width="40" height="40" as="geometry"/>
                    </mxCell>
                </UserObject>
                <UserObject label="2,0" tags="D1" id="IuttqhlB77bu6fsDmNeb-75">
                    <mxCell style="rounded=0;whiteSpace=wrap;html=1;container=0;fillColor=#647687;fontColor=#F0F0F0;strokeColor=#314354;strokeWidth=2;" parent="IuttqhlB77bu6fsDmNeb-1" vertex="1">
                        <mxGeometry x="-158" y="120" width="40" height="40" as="geometry"/>
                    </mxCell>
                </UserObject>
                <UserObject label="0,1" tags="D1" id="IuttqhlB77bu6fsDmNeb-76">
                    <mxCell style="rounded=0;whiteSpace=wrap;html=1;container=0;fillColor=#647687;fontColor=#F0F0F0;strokeColor=#314354;strokeWidth=2;" parent="IuttqhlB77bu6fsDmNeb-1" vertex="1">
                        <mxGeometry x="-358" y="120" width="40" height="40" as="geometry"/>
                    </mxCell>
                </UserObject>
                <UserObject label="1,1" tags="S1" id="IuttqhlB77bu6fsDmNeb-77">
                    <mxCell style="rounded=0;whiteSpace=wrap;html=1;fillColor=#0050EF;fontColor=#F0F0F0;strokeColor=#001DBC;container=0;strokeWidth=2;" parent="IuttqhlB77bu6fsDmNeb-1" vertex="1">
                        <mxGeometry x="-238" y="120" width="40" height="40" as="geometry"/>
                    </mxCell>
                </UserObject>
                <UserObject label="2,1" tags="D1" id="IuttqhlB77bu6fsDmNeb-78">
                    <mxCell style="rounded=0;whiteSpace=wrap;html=1;container=0;fillColor=#647687;fontColor=#F0F0F0;strokeColor=#314354;strokeWidth=2;" parent="IuttqhlB77bu6fsDmNeb-1" vertex="1">
                        <mxGeometry x="-118" y="120" width="40" height="40" as="geometry"/>
                    </mxCell>
                </UserObject>
                <UserObject label="0,2" tags="D1" id="IuttqhlB77bu6fsDmNeb-79">
                    <mxCell style="rounded=0;whiteSpace=wrap;html=1;container=0;fillColor=#647687;fontColor=#F0F0F0;strokeColor=#314354;strokeWidth=2;" parent="IuttqhlB77bu6fsDmNeb-1" vertex="1">
                        <mxGeometry x="-318" y="120" width="40" height="40" as="geometry"/>
                    </mxCell>
                </UserObject>
                <UserObject label="1,2" tags="D1" id="IuttqhlB77bu6fsDmNeb-80">
                    <mxCell style="rounded=0;whiteSpace=wrap;html=1;container=0;fillColor=#647687;fontColor=#F0F0F0;strokeColor=#314354;strokeWidth=2;" parent="IuttqhlB77bu6fsDmNeb-1" vertex="1">
                        <mxGeometry x="-198" y="120" width="40" height="40" as="geometry"/>
                    </mxCell>
                </UserObject>
                <UserObject label="2,2" tags="D1" id="IuttqhlB77bu6fsDmNeb-81">
                    <mxCell style="rounded=0;whiteSpace=wrap;html=1;container=0;fillColor=#647687;fontColor=#F0F0F0;strokeColor=#314354;strokeWidth=2;" parent="IuttqhlB77bu6fsDmNeb-1" vertex="1">
                        <mxGeometry x="-78" y="120" width="40" height="40" as="geometry"/>
                    </mxCell>
                </UserObject>
                <UserObject label="0,0" tags="D2" id="IuttqhlB77bu6fsDmNeb-82">
                    <mxCell style="rounded=0;whiteSpace=wrap;html=1;strokeColor=#787878;fontColor=#787878;container=0;strokeWidth=2;fillColor=none;" parent="IuttqhlB77bu6fsDmNeb-1" vertex="1">
                        <mxGeometry x="-398" y="80" width="40" height="40" as="geometry"/>
                    </mxCell>
                </UserObject>
                <UserObject label="1,0" tags="D2" id="IuttqhlB77bu6fsDmNeb-83">
                    <mxCell style="rounded=0;whiteSpace=wrap;html=1;strokeColor=#787878;fontColor=#787878;container=0;strokeWidth=2;fillColor=none;" parent="IuttqhlB77bu6fsDmNeb-1" vertex="1">
                        <mxGeometry x="-278" y="80" width="40" height="40" as="geometry"/>
                    </mxCell>
                </UserObject>
                <UserObject label="2,0" tags="D2" id="IuttqhlB77bu6fsDmNeb-84">
                    <mxCell style="rounded=0;whiteSpace=wrap;html=1;strokeColor=#787878;fontColor=#787878;container=0;strokeWidth=2;fillColor=none;" parent="IuttqhlB77bu6fsDmNeb-1" vertex="1">
                        <mxGeometry x="-158" y="80" width="40" height="40" as="geometry"/>
                    </mxCell>
                </UserObject>
                <UserObject label="0,1" tags="D2" id="IuttqhlB77bu6fsDmNeb-85">
                    <mxCell style="rounded=0;whiteSpace=wrap;html=1;strokeColor=#787878;fontColor=#787878;container=0;strokeWidth=2;fillColor=none;" parent="IuttqhlB77bu6fsDmNeb-1" vertex="1">
                        <mxGeometry x="-358" y="80" width="40" height="40" as="geometry"/>
                    </mxCell>
                </UserObject>
                <UserObject label="1,1" tags="S2" id="IuttqhlB77bu6fsDmNeb-86">
                    <mxCell style="rounded=0;whiteSpace=wrap;html=1;strokeColor=#6C8EBF;fillColor=none;container=0;labelBackgroundColor=none;labelBorderColor=none;fontColor=#787878;strokeWidth=2;" parent="IuttqhlB77bu6fsDmNeb-1" vertex="1">
                        <mxGeometry x="-238" y="80" width="40" height="40" as="geometry"/>
                    </mxCell>
                </UserObject>
                <UserObject label="2,1" tags="D2" id="IuttqhlB77bu6fsDmNeb-87">
                    <mxCell style="rounded=0;whiteSpace=wrap;html=1;strokeColor=#787878;fontColor=#787878;container=0;strokeWidth=2;fillColor=none;" parent="IuttqhlB77bu6fsDmNeb-1" vertex="1">
                        <mxGeometry x="-118" y="80" width="40" height="40" as="geometry"/>
                    </mxCell>
                </UserObject>
                <UserObject label="0,2" tags="D2" id="IuttqhlB77bu6fsDmNeb-88">
                    <mxCell style="rounded=0;whiteSpace=wrap;html=1;strokeColor=#787878;fontColor=#787878;container=0;strokeWidth=2;fillColor=none;" parent="IuttqhlB77bu6fsDmNeb-1" vertex="1">
                        <mxGeometry x="-318" y="80" width="40" height="40" as="geometry"/>
                    </mxCell>
                </UserObject>
                <UserObject label="1,2" tags="D2" id="IuttqhlB77bu6fsDmNeb-89">
                    <mxCell style="rounded=0;whiteSpace=wrap;html=1;strokeColor=#787878;fontColor=#787878;container=0;strokeWidth=2;fillColor=none;" parent="IuttqhlB77bu6fsDmNeb-1" vertex="1">
                        <mxGeometry x="-198" y="80" width="40" height="40" as="geometry"/>
                    </mxCell>
                </UserObject>
                <UserObject label="2,2" tags="D2" id="IuttqhlB77bu6fsDmNeb-90">
                    <mxCell style="rounded=0;whiteSpace=wrap;html=1;strokeColor=#787878;fontColor=#787878;container=0;strokeWidth=2;fillColor=none;" parent="IuttqhlB77bu6fsDmNeb-1" vertex="1">
                        <mxGeometry x="-78" y="80" width="40" height="40" as="geometry"/>
                    </mxCell>
                </UserObject>
                <mxCell id="IuttqhlB77bu6fsDmNeb-91" value="&lt;font style=&quot;font-size: 24px;&quot;&gt;&lt;b style=&quot;font-size: 24px;&quot;&gt;K&lt;/b&gt;&lt;/font&gt;" style="whiteSpace=wrap;html=1;rounded=0;strokeColor=none;fontSize=24;fontColor=default;labelBackgroundColor=none;fillColor=none;container=0;" parent="IuttqhlB77bu6fsDmNeb-1" vertex="1">
                    <mxGeometry x="-238" y="40" width="40" height="40" as="geometry"/>
                </mxCell>
                <UserObject label="0,0&lt;br&gt;0,0" tags="M0" id="IuttqhlB77bu6fsDmNeb-93">
                    <mxCell style="rounded=0;whiteSpace=wrap;html=1;fillColor=#76608A;fontColor=#F0F0F0;strokeColor=#432D57;container=0;strokeWidth=2;" parent="IuttqhlB77bu6fsDmNeb-1" vertex="1">
                        <mxGeometry x="-398" y="200" width="40" height="40" as="geometry"/>
                    </mxCell>
                </UserObject>
                <UserObject label="0,0&lt;br&gt;0,1" tags="M1" id="IuttqhlB77bu6fsDmNeb-94">
                    <mxCell style="rounded=0;whiteSpace=wrap;html=1;fillColor=#60A917;fontColor=#F0F0F0;strokeColor=#2D7600;container=0;strokeWidth=2;" parent="IuttqhlB77bu6fsDmNeb-1" vertex="1">
                        <mxGeometry x="-358" y="200" width="40" height="40" as="geometry"/>
                    </mxCell>
                </UserObject>
                <UserObject label="0,0&lt;br&gt;0,2" tags="M1" id="IuttqhlB77bu6fsDmNeb-95">
                    <mxCell style="rounded=0;whiteSpace=wrap;html=1;fillColor=#60A917;fontColor=#F0F0F0;strokeColor=#2D7600;container=0;strokeWidth=2;" parent="IuttqhlB77bu6fsDmNeb-1" vertex="1">
                        <mxGeometry x="-318" y="200" width="40" height="40" as="geometry"/>
                    </mxCell>
                </UserObject>
                <UserObject label="0,0&lt;br&gt;1,0" tags="M1" id="IuttqhlB77bu6fsDmNeb-96">
                    <mxCell style="rounded=0;whiteSpace=wrap;html=1;fillColor=#60A917;fontColor=#F0F0F0;strokeColor=#2D7600;container=0;strokeWidth=2;" parent="IuttqhlB77bu6fsDmNeb-1" vertex="1">
                        <mxGeometry x="-278" y="200" width="40" height="40" as="geometry"/>
                    </mxCell>
                </UserObject>
                <UserObject label="0,0&lt;br&gt;1,1" tags="S1" id="IuttqhlB77bu6fsDmNeb-97">
                    <mxCell style="rounded=0;whiteSpace=wrap;html=1;fillColor=#0050EF;fontColor=#F0F0F0;strokeColor=#001DBC;container=0;strokeWidth=2;" parent="IuttqhlB77bu6fsDmNeb-1" vertex="1">
                        <mxGeometry x="-238" y="200" width="40" height="40" as="geometry"/>
                    </mxCell>
                </UserObject>
                <UserObject label="0,0&lt;br&gt;1,2" tags="M1" id="IuttqhlB77bu6fsDmNeb-98">
                    <mxCell style="rounded=0;whiteSpace=wrap;html=1;fillColor=#60A917;fontColor=#F0F0F0;strokeColor=#2D7600;container=0;strokeWidth=2;" parent="IuttqhlB77bu6fsDmNeb-1" vertex="1">
                        <mxGeometry x="-198" y="200" width="40" height="40" as="geometry"/>
                    </mxCell>
                </UserObject>
                <UserObject label="0,0&lt;br&gt;2,0" tags="M1" id="IuttqhlB77bu6fsDmNeb-99">
                    <mxCell style="rounded=0;whiteSpace=wrap;html=1;fillColor=#60A917;fontColor=#F0F0F0;strokeColor=#2D7600;container=0;strokeWidth=2;" parent="IuttqhlB77bu6fsDmNeb-1" vertex="1">
                        <mxGeometry x="-158" y="200" width="40" height="40" as="geometry"/>
                    </mxCell>
                </UserObject>
                <UserObject label="0,0&lt;br&gt;2,1" tags="M1" id="IuttqhlB77bu6fsDmNeb-100">
                    <mxCell style="rounded=0;whiteSpace=wrap;html=1;fillColor=#60A917;fontColor=#F0F0F0;strokeColor=#2D7600;container=0;strokeWidth=2;" parent="IuttqhlB77bu6fsDmNeb-1" vertex="1">
                        <mxGeometry x="-118" y="200" width="40" height="40" as="geometry"/>
                    </mxCell>
                </UserObject>
                <UserObject label="0,0&lt;br&gt;2,2" tags="M1" id="IuttqhlB77bu6fsDmNeb-101">
                    <mxCell style="rounded=0;whiteSpace=wrap;html=1;fillColor=#60A917;fontColor=#F0F0F0;strokeColor=#2D7600;container=0;strokeWidth=2;" parent="IuttqhlB77bu6fsDmNeb-1" vertex="1">
                        <mxGeometry x="-78" y="200" width="40" height="40" as="geometry"/>
                    </mxCell>
                </UserObject>
                <UserObject label="0,1&lt;br&gt;0,0" tags="M0" id="IuttqhlB77bu6fsDmNeb-102">
                    <mxCell style="rounded=0;whiteSpace=wrap;html=1;fillColor=#76608A;fontColor=#F0F0F0;strokeColor=#432D57;container=0;strokeWidth=2;" parent="IuttqhlB77bu6fsDmNeb-1" vertex="1">
                        <mxGeometry x="-398" y="240" width="40" height="40" as="geometry"/>
                    </mxCell>
                </UserObject>
                <UserObject label="0,1&lt;br&gt;0,1" tags="M0" id="IuttqhlB77bu6fsDmNeb-103">
                    <mxCell style="rounded=0;whiteSpace=wrap;html=1;fillColor=#76608A;fontColor=#F0F0F0;strokeColor=#432D57;container=0;strokeWidth=2;" parent="IuttqhlB77bu6fsDmNeb-1" vertex="1">
                        <mxGeometry x="-358" y="240" width="40" height="40" as="geometry"/>
                    </mxCell>
                </UserObject>
                <UserObject label="0,1&lt;br&gt;0,2" tags="M1" id="IuttqhlB77bu6fsDmNeb-104">
                    <mxCell style="rounded=0;whiteSpace=wrap;html=1;fillColor=#60A917;fontColor=#F0F0F0;strokeColor=#2D7600;container=0;strokeWidth=2;" parent="IuttqhlB77bu6fsDmNeb-1" vertex="1">
                        <mxGeometry x="-318" y="240" width="40" height="40" as="geometry"/>
                    </mxCell>
                </UserObject>
                <UserObject label="0,1&lt;br&gt;1,0" tags="M1" id="IuttqhlB77bu6fsDmNeb-105">
                    <mxCell style="rounded=0;whiteSpace=wrap;html=1;fillColor=#60A917;fontColor=#F0F0F0;strokeColor=#2D7600;container=0;strokeWidth=2;" parent="IuttqhlB77bu6fsDmNeb-1" vertex="1">
                        <mxGeometry x="-278" y="240" width="40" height="40" as="geometry"/>
                    </mxCell>
                </UserObject>
                <UserObject label="0,1&lt;br&gt;1,1" tags="S1" id="IuttqhlB77bu6fsDmNeb-106">
                    <mxCell style="rounded=0;whiteSpace=wrap;html=1;fillColor=#0050EF;fontColor=#F0F0F0;strokeColor=#001DBC;container=0;strokeWidth=2;" parent="IuttqhlB77bu6fsDmNeb-1" vertex="1">
                        <mxGeometry x="-238" y="240" width="40" height="40" as="geometry"/>
                    </mxCell>
                </UserObject>
                <UserObject label="0,1&lt;br&gt;1,2" tags="M1" id="IuttqhlB77bu6fsDmNeb-107">
                    <mxCell style="rounded=0;whiteSpace=wrap;html=1;fillColor=#60A917;fontColor=#F0F0F0;strokeColor=#2D7600;container=0;strokeWidth=2;" parent="IuttqhlB77bu6fsDmNeb-1" vertex="1">
                        <mxGeometry x="-198" y="240" width="40" height="40" as="geometry"/>
                    </mxCell>
                </UserObject>
                <UserObject label="0,1&lt;br&gt;2,0" tags="M1" id="IuttqhlB77bu6fsDmNeb-108">
                    <mxCell style="rounded=0;whiteSpace=wrap;html=1;fillColor=#60A917;fontColor=#F0F0F0;strokeColor=#2D7600;container=0;strokeWidth=2;" parent="IuttqhlB77bu6fsDmNeb-1" vertex="1">
                        <mxGeometry x="-158" y="240" width="40" height="40" as="geometry"/>
                    </mxCell>
                </UserObject>
                <UserObject label="0,1&lt;br&gt;2,1" tags="M1" id="IuttqhlB77bu6fsDmNeb-109">
                    <mxCell style="rounded=0;whiteSpace=wrap;html=1;fillColor=#60A917;fontColor=#F0F0F0;strokeColor=#2D7600;container=0;strokeWidth=2;" parent="IuttqhlB77bu6fsDmNeb-1" vertex="1">
                        <mxGeometry x="-118" y="240" width="40" height="40" as="geometry"/>
                    </mxCell>
                </UserObject>
                <UserObject label="0,1&lt;br&gt;2,2" tags="M1" id="IuttqhlB77bu6fsDmNeb-110">
                    <mxCell style="rounded=0;whiteSpace=wrap;html=1;fillColor=#60A917;fontColor=#F0F0F0;strokeColor=#2D7600;container=0;strokeWidth=2;" parent="IuttqhlB77bu6fsDmNeb-1" vertex="1">
                        <mxGeometry x="-78" y="240" width="40" height="40" as="geometry"/>
                    </mxCell>
                </UserObject>
                <UserObject label="0,2&lt;br&gt;0,0" tags="M0" id="IuttqhlB77bu6fsDmNeb-111">
                    <mxCell style="rounded=0;whiteSpace=wrap;html=1;fillColor=#76608A;fontColor=#F0F0F0;strokeColor=#432D57;container=0;strokeWidth=2;" parent="IuttqhlB77bu6fsDmNeb-1" vertex="1">
                        <mxGeometry x="-398" y="280" width="40" height="40" as="geometry"/>
                    </mxCell>
                </UserObject>
                <UserObject label="0,2&lt;br&gt;0,1" tags="M0" id="IuttqhlB77bu6fsDmNeb-112">
                    <mxCell style="rounded=0;whiteSpace=wrap;html=1;fillColor=#76608A;fontColor=#F0F0F0;strokeColor=#432D57;container=0;strokeWidth=2;" parent="IuttqhlB77bu6fsDmNeb-1" vertex="1">
                        <mxGeometry x="-358" y="280" width="40" height="40" as="geometry"/>
                    </mxCell>
                </UserObject>
                <UserObject label="0,2&lt;br&gt;0,2" tags="M0" id="IuttqhlB77bu6fsDmNeb-113">
                    <mxCell style="rounded=0;whiteSpace=wrap;html=1;fillColor=#76608A;fontColor=#F0F0F0;strokeColor=#432D57;container=0;strokeWidth=2;" parent="IuttqhlB77bu6fsDmNeb-1" vertex="1">
                        <mxGeometry x="-318" y="280" width="40" height="40" as="geometry"/>
                    </mxCell>
                </UserObject>
                <UserObject label="0,2&lt;br&gt;1,0" tags="M1" id="IuttqhlB77bu6fsDmNeb-114">
                    <mxCell style="rounded=0;whiteSpace=wrap;html=1;fillColor=#60A917;fontColor=#F0F0F0;strokeColor=#2D7600;container=0;strokeWidth=2;" parent="IuttqhlB77bu6fsDmNeb-1" vertex="1">
                        <mxGeometry x="-278" y="280" width="40" height="40" as="geometry"/>
                    </mxCell>
                </UserObject>
                <UserObject label="0,2&lt;br&gt;1,1" tags="S1" id="IuttqhlB77bu6fsDmNeb-115">
                    <mxCell style="rounded=0;whiteSpace=wrap;html=1;fillColor=#0050EF;fontColor=#F0F0F0;strokeColor=#001DBC;container=0;strokeWidth=2;" parent="IuttqhlB77bu6fsDmNeb-1" vertex="1">
                        <mxGeometry x="-238" y="280" width="40" height="40" as="geometry"/>
                    </mxCell>
                </UserObject>
                <UserObject label="0,2&lt;br&gt;1,2" tags="M1" id="IuttqhlB77bu6fsDmNeb-116">
                    <mxCell style="rounded=0;whiteSpace=wrap;html=1;fillColor=#60A917;fontColor=#F0F0F0;strokeColor=#2D7600;container=0;strokeWidth=2;" parent="IuttqhlB77bu6fsDmNeb-1" vertex="1">
                        <mxGeometry x="-198" y="280" width="40" height="40" as="geometry"/>
                    </mxCell>
                </UserObject>
                <UserObject label="0,2&lt;br&gt;2,0" tags="M1" id="IuttqhlB77bu6fsDmNeb-117">
                    <mxCell style="rounded=0;whiteSpace=wrap;html=1;fillColor=#60A917;fontColor=#F0F0F0;strokeColor=#2D7600;container=0;strokeWidth=2;" parent="IuttqhlB77bu6fsDmNeb-1" vertex="1">
                        <mxGeometry x="-158" y="280" width="40" height="40" as="geometry"/>
                    </mxCell>
                </UserObject>
                <UserObject label="0,2&lt;br&gt;2,1" tags="M1" id="IuttqhlB77bu6fsDmNeb-118">
                    <mxCell style="rounded=0;whiteSpace=wrap;html=1;fillColor=#60A917;fontColor=#F0F0F0;strokeColor=#2D7600;container=0;strokeWidth=2;" parent="IuttqhlB77bu6fsDmNeb-1" vertex="1">
                        <mxGeometry x="-118" y="280" width="40" height="40" as="geometry"/>
                    </mxCell>
                </UserObject>
                <UserObject label="0,2&lt;br&gt;2,2" tags="M1" id="IuttqhlB77bu6fsDmNeb-119">
                    <mxCell style="rounded=0;whiteSpace=wrap;html=1;fillColor=#60A917;fontColor=#F0F0F0;strokeColor=#2D7600;container=0;strokeWidth=2;" parent="IuttqhlB77bu6fsDmNeb-1" vertex="1">
                        <mxGeometry x="-78" y="280" width="40" height="40" as="geometry"/>
                    </mxCell>
                </UserObject>
                <UserObject label="1,0&lt;br&gt;0,0" tags="M0" id="IuttqhlB77bu6fsDmNeb-120">
                    <mxCell style="rounded=0;whiteSpace=wrap;html=1;fillColor=#76608A;fontColor=#F0F0F0;strokeColor=#432D57;container=0;strokeWidth=2;" parent="IuttqhlB77bu6fsDmNeb-1" vertex="1">
                        <mxGeometry x="-398" y="320" width="40" height="40" as="geometry"/>
                    </mxCell>
                </UserObject>
                <UserObject label="1,0&lt;br&gt;0,1" tags="M0" id="IuttqhlB77bu6fsDmNeb-121">
                    <mxCell style="rounded=0;whiteSpace=wrap;html=1;fillColor=#76608A;fontColor=#F0F0F0;strokeColor=#432D57;container=0;strokeWidth=2;" parent="IuttqhlB77bu6fsDmNeb-1" vertex="1">
                        <mxGeometry x="-358" y="320" width="40" height="40" as="geometry"/>
                    </mxCell>
                </UserObject>
                <UserObject label="1,0&lt;br&gt;0,2" tags="M0" id="IuttqhlB77bu6fsDmNeb-122">
                    <mxCell style="rounded=0;whiteSpace=wrap;html=1;fillColor=#76608A;fontColor=#F0F0F0;strokeColor=#432D57;container=0;strokeWidth=2;" parent="IuttqhlB77bu6fsDmNeb-1" vertex="1">
                        <mxGeometry x="-318" y="320" width="40" height="40" as="geometry"/>
                    </mxCell>
                </UserObject>
                <UserObject label="1,0&lt;br&gt;1,0" tags="M0" id="IuttqhlB77bu6fsDmNeb-123">
                    <mxCell style="rounded=0;whiteSpace=wrap;html=1;fillColor=#76608A;fontColor=#F0F0F0;strokeColor=#432D57;container=0;strokeWidth=2;" parent="IuttqhlB77bu6fsDmNeb-1" vertex="1">
                        <mxGeometry x="-278" y="320" width="40" height="40" as="geometry"/>
                    </mxCell>
                </UserObject>
                <UserObject label="1,0&lt;br&gt;1,1" tags="S1" id="IuttqhlB77bu6fsDmNeb-124">
                    <mxCell style="rounded=0;whiteSpace=wrap;html=1;fillColor=#0050EF;fontColor=#F0F0F0;strokeColor=#001DBC;container=0;strokeWidth=2;" parent="IuttqhlB77bu6fsDmNeb-1" vertex="1">
                        <mxGeometry x="-238" y="320" width="40" height="40" as="geometry"/>
                    </mxCell>
                </UserObject>
                <UserObject label="1,0&lt;br&gt;1,2" tags="M1" id="IuttqhlB77bu6fsDmNeb-125">
                    <mxCell style="rounded=0;whiteSpace=wrap;html=1;fillColor=#60A917;fontColor=#F0F0F0;strokeColor=#2D7600;container=0;strokeWidth=2;" parent="IuttqhlB77bu6fsDmNeb-1" vertex="1">
                        <mxGeometry x="-198" y="320" width="40" height="40" as="geometry"/>
                    </mxCell>
                </UserObject>
                <UserObject label="1,0&lt;br&gt;2,0" tags="M1" id="IuttqhlB77bu6fsDmNeb-126">
                    <mxCell style="rounded=0;whiteSpace=wrap;html=1;fillColor=#60A917;fontColor=#F0F0F0;strokeColor=#2D7600;container=0;strokeWidth=2;" parent="IuttqhlB77bu6fsDmNeb-1" vertex="1">
                        <mxGeometry x="-158" y="320" width="40" height="40" as="geometry"/>
                    </mxCell>
                </UserObject>
                <UserObject label="1,0&lt;br&gt;2,1" tags="M1" id="IuttqhlB77bu6fsDmNeb-127">
                    <mxCell style="rounded=0;whiteSpace=wrap;html=1;fillColor=#60A917;fontColor=#F0F0F0;strokeColor=#2D7600;container=0;strokeWidth=2;" parent="IuttqhlB77bu6fsDmNeb-1" vertex="1">
                        <mxGeometry x="-118" y="320" width="40" height="40" as="geometry"/>
                    </mxCell>
                </UserObject>
                <UserObject label="1,0&lt;br&gt;2,2" tags="M1" id="IuttqhlB77bu6fsDmNeb-128">
                    <mxCell style="rounded=0;whiteSpace=wrap;html=1;fillColor=#60A917;fontColor=#F0F0F0;strokeColor=#2D7600;container=0;strokeWidth=2;" parent="IuttqhlB77bu6fsDmNeb-1" vertex="1">
                        <mxGeometry x="-78" y="320" width="40" height="40" as="geometry"/>
                    </mxCell>
                </UserObject>
                <UserObject label="1,1&lt;br&gt;0,0" tags="M0" id="IuttqhlB77bu6fsDmNeb-129">
                    <mxCell style="rounded=0;whiteSpace=wrap;html=1;fillColor=#76608A;fontColor=#F0F0F0;strokeColor=#432D57;container=0;strokeWidth=2;" parent="IuttqhlB77bu6fsDmNeb-1" vertex="1">
                        <mxGeometry x="-398" y="360" width="40" height="40" as="geometry"/>
                    </mxCell>
                </UserObject>
                <UserObject label="1,1&lt;br&gt;0,1" tags="M0" id="IuttqhlB77bu6fsDmNeb-130">
                    <mxCell style="rounded=0;whiteSpace=wrap;html=1;fillColor=#76608A;fontColor=#F0F0F0;strokeColor=#432D57;container=0;strokeWidth=2;" parent="IuttqhlB77bu6fsDmNeb-1" vertex="1">
                        <mxGeometry x="-358" y="360" width="40" height="40" as="geometry"/>
                    </mxCell>
                </UserObject>
                <UserObject label="1,1&lt;br&gt;0,2" tags="M0" id="IuttqhlB77bu6fsDmNeb-131">
                    <mxCell style="rounded=0;whiteSpace=wrap;html=1;fillColor=#76608A;fontColor=#F0F0F0;strokeColor=#432D57;container=0;strokeWidth=2;" parent="IuttqhlB77bu6fsDmNeb-1" vertex="1">
                        <mxGeometry x="-318" y="360" width="40" height="40" as="geometry"/>
                    </mxCell>
                </UserObject>
                <UserObject label="1,1&lt;br&gt;1,0" tags="M0" id="IuttqhlB77bu6fsDmNeb-132">
                    <mxCell style="rounded=0;whiteSpace=wrap;html=1;fillColor=#76608A;fontColor=#F0F0F0;strokeColor=#432D57;container=0;strokeWidth=2;" parent="IuttqhlB77bu6fsDmNeb-1" vertex="1">
                        <mxGeometry x="-278" y="360" width="40" height="40" as="geometry"/>
                    </mxCell>
                </UserObject>
                <UserObject label="1,1&lt;br&gt;1,1" tags="M0" id="IuttqhlB77bu6fsDmNeb-133">
                    <mxCell style="rounded=0;whiteSpace=wrap;html=1;fillColor=#76608A;fontColor=#F0F0F0;strokeColor=#432D57;container=0;strokeWidth=2;" parent="IuttqhlB77bu6fsDmNeb-1" vertex="1">
                        <mxGeometry x="-238" y="360" width="40" height="40" as="geometry"/>
                    </mxCell>
                </UserObject>
                <UserObject label="1,1&lt;br&gt;1,2" tags="M1" id="IuttqhlB77bu6fsDmNeb-134">
                    <mxCell style="rounded=0;whiteSpace=wrap;html=1;fillColor=#60A917;fontColor=#F0F0F0;strokeColor=#2D7600;container=0;strokeWidth=2;" parent="IuttqhlB77bu6fsDmNeb-1" vertex="1">
                        <mxGeometry x="-198" y="360" width="40" height="40" as="geometry"/>
                    </mxCell>
                </UserObject>
                <UserObject label="1,1&lt;br&gt;2,0" tags="M1" id="IuttqhlB77bu6fsDmNeb-135">
                    <mxCell style="rounded=0;whiteSpace=wrap;html=1;fillColor=#60A917;fontColor=#F0F0F0;strokeColor=#2D7600;container=0;strokeWidth=2;" parent="IuttqhlB77bu6fsDmNeb-1" vertex="1">
                        <mxGeometry x="-158" y="360" width="40" height="40" as="geometry"/>
                    </mxCell>
                </UserObject>
                <UserObject label="1,1&lt;br&gt;2,1" tags="M1" id="IuttqhlB77bu6fsDmNeb-136">
                    <mxCell style="rounded=0;whiteSpace=wrap;html=1;fillColor=#60A917;fontColor=#F0F0F0;strokeColor=#2D7600;container=0;strokeWidth=2;" parent="IuttqhlB77bu6fsDmNeb-1" vertex="1">
                        <mxGeometry x="-118" y="360" width="40" height="40" as="geometry"/>
                    </mxCell>
                </UserObject>
                <UserObject label="1,1&lt;br&gt;2,2" tags="M1" id="IuttqhlB77bu6fsDmNeb-137">
                    <mxCell style="rounded=0;whiteSpace=wrap;html=1;fillColor=#60A917;fontColor=#F0F0F0;strokeColor=#2D7600;container=0;strokeWidth=2;" parent="IuttqhlB77bu6fsDmNeb-1" vertex="1">
                        <mxGeometry x="-78" y="360" width="40" height="40" as="geometry"/>
                    </mxCell>
                </UserObject>
                <UserObject label="1,2&lt;br&gt;0,0" tags="M0" id="IuttqhlB77bu6fsDmNeb-138">
                    <mxCell style="rounded=0;whiteSpace=wrap;html=1;fillColor=#76608A;fontColor=#F0F0F0;strokeColor=#432D57;container=0;strokeWidth=2;" parent="IuttqhlB77bu6fsDmNeb-1" vertex="1">
                        <mxGeometry x="-398" y="400" width="40" height="40" as="geometry"/>
                    </mxCell>
                </UserObject>
                <UserObject label="1,2&lt;br&gt;0,1" tags="M0" id="IuttqhlB77bu6fsDmNeb-139">
                    <mxCell style="rounded=0;whiteSpace=wrap;html=1;fillColor=#76608A;fontColor=#F0F0F0;strokeColor=#432D57;container=0;strokeWidth=2;" parent="IuttqhlB77bu6fsDmNeb-1" vertex="1">
                        <mxGeometry x="-358" y="400" width="40" height="40" as="geometry"/>
                    </mxCell>
                </UserObject>
                <UserObject label="1,2&lt;br&gt;0,2" tags="M0" id="IuttqhlB77bu6fsDmNeb-140">
                    <mxCell style="rounded=0;whiteSpace=wrap;html=1;fillColor=#76608A;fontColor=#F0F0F0;strokeColor=#432D57;container=0;strokeWidth=2;" parent="IuttqhlB77bu6fsDmNeb-1" vertex="1">
                        <mxGeometry x="-318" y="400" width="40" height="40" as="geometry"/>
                    </mxCell>
                </UserObject>
                <UserObject label="1,2&lt;br&gt;1,0" tags="M0" id="IuttqhlB77bu6fsDmNeb-141">
                    <mxCell style="rounded=0;whiteSpace=wrap;html=1;fillColor=#76608A;fontColor=#F0F0F0;strokeColor=#432D57;container=0;strokeWidth=2;" parent="IuttqhlB77bu6fsDmNeb-1" vertex="1">
                        <mxGeometry x="-278" y="400" width="40" height="40" as="geometry"/>
                    </mxCell>
                </UserObject>
                <UserObject label="1,2&lt;br&gt;1,1" tags="M0" id="IuttqhlB77bu6fsDmNeb-142">
                    <mxCell style="rounded=0;whiteSpace=wrap;html=1;fillColor=#76608A;fontColor=#F0F0F0;strokeColor=#432D57;container=0;strokeWidth=2;" parent="IuttqhlB77bu6fsDmNeb-1" vertex="1">
                        <mxGeometry x="-238" y="400" width="40" height="40" as="geometry"/>
                    </mxCell>
                </UserObject>
                <UserObject label="1,2&lt;br&gt;1,2" tags="M0" id="IuttqhlB77bu6fsDmNeb-143">
                    <mxCell style="rounded=0;whiteSpace=wrap;html=1;fillColor=#76608A;fontColor=#F0F0F0;strokeColor=#432D57;container=0;strokeWidth=2;" parent="IuttqhlB77bu6fsDmNeb-1" vertex="1">
                        <mxGeometry x="-198" y="400" width="40" height="40" as="geometry"/>
                    </mxCell>
                </UserObject>
                <UserObject label="1,2&lt;br&gt;2,0" tags="M1" id="IuttqhlB77bu6fsDmNeb-144">
                    <mxCell style="rounded=0;whiteSpace=wrap;html=1;fillColor=#60A917;fontColor=#F0F0F0;strokeColor=#2D7600;container=0;strokeWidth=2;" parent="IuttqhlB77bu6fsDmNeb-1" vertex="1">
                        <mxGeometry x="-158" y="400" width="40" height="40" as="geometry"/>
                    </mxCell>
                </UserObject>
                <UserObject label="1,2&lt;br&gt;2,1" tags="M1" id="IuttqhlB77bu6fsDmNeb-145">
                    <mxCell style="rounded=0;whiteSpace=wrap;html=1;fillColor=#60A917;fontColor=#F0F0F0;strokeColor=#2D7600;container=0;strokeWidth=2;" parent="IuttqhlB77bu6fsDmNeb-1" vertex="1">
                        <mxGeometry x="-118" y="400" width="40" height="40" as="geometry"/>
                    </mxCell>
                </UserObject>
                <UserObject label="1,2&lt;br&gt;2,2" tags="M1" id="IuttqhlB77bu6fsDmNeb-146">
                    <mxCell style="rounded=0;whiteSpace=wrap;html=1;fillColor=#60A917;fontColor=#F0F0F0;strokeColor=#2D7600;container=0;strokeWidth=2;" parent="IuttqhlB77bu6fsDmNeb-1" vertex="1">
                        <mxGeometry x="-78" y="400" width="40" height="40" as="geometry"/>
                    </mxCell>
                </UserObject>
                <UserObject label="2,0&lt;br&gt;0,0" tags="M0" id="IuttqhlB77bu6fsDmNeb-147">
                    <mxCell style="rounded=0;whiteSpace=wrap;html=1;fillColor=#76608A;fontColor=#F0F0F0;strokeColor=#432D57;container=0;strokeWidth=2;" parent="IuttqhlB77bu6fsDmNeb-1" vertex="1">
                        <mxGeometry x="-398" y="440" width="40" height="40" as="geometry"/>
                    </mxCell>
                </UserObject>
                <UserObject label="2,0&lt;br&gt;0,1" tags="M0" id="IuttqhlB77bu6fsDmNeb-148">
                    <mxCell style="rounded=0;whiteSpace=wrap;html=1;fillColor=#76608A;fontColor=#F0F0F0;strokeColor=#432D57;container=0;strokeWidth=2;" parent="IuttqhlB77bu6fsDmNeb-1" vertex="1">
                        <mxGeometry x="-358" y="440" width="40" height="40" as="geometry"/>
                    </mxCell>
                </UserObject>
                <UserObject label="2,0&lt;br&gt;0,2" tags="M0" id="IuttqhlB77bu6fsDmNeb-149">
                    <mxCell style="rounded=0;whiteSpace=wrap;html=1;fillColor=#76608A;fontColor=#F0F0F0;strokeColor=#432D57;container=0;strokeWidth=2;" parent="IuttqhlB77bu6fsDmNeb-1" vertex="1">
                        <mxGeometry x="-318" y="440" width="40" height="40" as="geometry"/>
                    </mxCell>
                </UserObject>
                <UserObject label="2,0&lt;br&gt;1,0" tags="M0" id="IuttqhlB77bu6fsDmNeb-150">
                    <mxCell style="rounded=0;whiteSpace=wrap;html=1;fillColor=#76608A;fontColor=#F0F0F0;strokeColor=#432D57;container=0;strokeWidth=2;" parent="IuttqhlB77bu6fsDmNeb-1" vertex="1">
                        <mxGeometry x="-278" y="440" width="40" height="40" as="geometry"/>
                    </mxCell>
                </UserObject>
                <UserObject label="2,0&lt;br&gt;1,1" tags="M0" id="IuttqhlB77bu6fsDmNeb-151">
                    <mxCell style="rounded=0;whiteSpace=wrap;html=1;fillColor=#76608A;fontColor=#F0F0F0;strokeColor=#432D57;container=0;strokeWidth=2;" parent="IuttqhlB77bu6fsDmNeb-1" vertex="1">
                        <mxGeometry x="-238" y="440" width="40" height="40" as="geometry"/>
                    </mxCell>
                </UserObject>
                <UserObject label="2,0&lt;br&gt;1,2" tags="M0" id="IuttqhlB77bu6fsDmNeb-152">
                    <mxCell style="rounded=0;whiteSpace=wrap;html=1;fillColor=#76608A;fontColor=#F0F0F0;strokeColor=#432D57;container=0;strokeWidth=2;" parent="IuttqhlB77bu6fsDmNeb-1" vertex="1">
                        <mxGeometry x="-198" y="440" width="40" height="40" as="geometry"/>
                    </mxCell>
                </UserObject>
                <UserObject label="2,0&lt;br&gt;2,0" tags="M0" id="IuttqhlB77bu6fsDmNeb-153">
                    <mxCell style="rounded=0;whiteSpace=wrap;html=1;fillColor=#76608A;fontColor=#F0F0F0;strokeColor=#432D57;container=0;strokeWidth=2;" parent="IuttqhlB77bu6fsDmNeb-1" vertex="1">
                        <mxGeometry x="-158" y="440" width="40" height="40" as="geometry"/>
                    </mxCell>
                </UserObject>
                <UserObject label="2,0&lt;br&gt;2,1" tags="M1" id="IuttqhlB77bu6fsDmNeb-154">
                    <mxCell style="rounded=0;whiteSpace=wrap;html=1;fillColor=#60A917;fontColor=#F0F0F0;strokeColor=#2D7600;container=0;strokeWidth=2;" parent="IuttqhlB77bu6fsDmNeb-1" vertex="1">
                        <mxGeometry x="-118" y="440" width="40" height="40" as="geometry"/>
                    </mxCell>
                </UserObject>
                <UserObject label="2,0&lt;br&gt;2,2" tags="M1" id="IuttqhlB77bu6fsDmNeb-155">
                    <mxCell style="rounded=0;whiteSpace=wrap;html=1;fillColor=#60A917;fontColor=#F0F0F0;strokeColor=#2D7600;container=0;strokeWidth=2;" parent="IuttqhlB77bu6fsDmNeb-1" vertex="1">
                        <mxGeometry x="-78" y="440" width="40" height="40" as="geometry"/>
                    </mxCell>
                </UserObject>
                <UserObject label="2,1&lt;br&gt;0,0" tags="M0" id="IuttqhlB77bu6fsDmNeb-156">
                    <mxCell style="rounded=0;whiteSpace=wrap;html=1;fillColor=#76608A;fontColor=#F0F0F0;strokeColor=#432D57;container=0;strokeWidth=2;" parent="IuttqhlB77bu6fsDmNeb-1" vertex="1">
                        <mxGeometry x="-398" y="480" width="40" height="40" as="geometry"/>
                    </mxCell>
                </UserObject>
                <UserObject label="2,1&lt;br&gt;0,1" tags="M0" id="IuttqhlB77bu6fsDmNeb-157">
                    <mxCell style="rounded=0;whiteSpace=wrap;html=1;fillColor=#76608A;fontColor=#F0F0F0;strokeColor=#432D57;container=0;strokeWidth=2;" parent="IuttqhlB77bu6fsDmNeb-1" vertex="1">
                        <mxGeometry x="-358" y="480" width="40" height="40" as="geometry"/>
                    </mxCell>
                </UserObject>
                <UserObject label="2,1&lt;br&gt;0,2" tags="M0" id="IuttqhlB77bu6fsDmNeb-158">
                    <mxCell style="rounded=0;whiteSpace=wrap;html=1;fillColor=#76608A;fontColor=#F0F0F0;strokeColor=#432D57;container=0;strokeWidth=2;" parent="IuttqhlB77bu6fsDmNeb-1" vertex="1">
                        <mxGeometry x="-318" y="480" width="40" height="40" as="geometry"/>
                    </mxCell>
                </UserObject>
                <UserObject label="2,1&lt;br&gt;1,0" tags="M0" id="IuttqhlB77bu6fsDmNeb-159">
                    <mxCell style="rounded=0;whiteSpace=wrap;html=1;fillColor=#76608A;fontColor=#F0F0F0;strokeColor=#432D57;container=0;strokeWidth=2;" parent="IuttqhlB77bu6fsDmNeb-1" vertex="1">
                        <mxGeometry x="-278" y="480" width="40" height="40" as="geometry"/>
                    </mxCell>
                </UserObject>
                <UserObject label="2,1&lt;br&gt;1,1" tags="M0" id="IuttqhlB77bu6fsDmNeb-160">
                    <mxCell style="rounded=0;whiteSpace=wrap;html=1;fillColor=#76608A;fontColor=#F0F0F0;strokeColor=#432D57;container=0;strokeWidth=2;" parent="IuttqhlB77bu6fsDmNeb-1" vertex="1">
                        <mxGeometry x="-238" y="480" width="40" height="40" as="geometry"/>
                    </mxCell>
                </UserObject>
                <UserObject label="2,1&lt;br&gt;1,2" tags="M0" id="IuttqhlB77bu6fsDmNeb-161">
                    <mxCell style="rounded=0;whiteSpace=wrap;html=1;fillColor=#76608A;fontColor=#F0F0F0;strokeColor=#432D57;container=0;strokeWidth=2;" parent="IuttqhlB77bu6fsDmNeb-1" vertex="1">
                        <mxGeometry x="-198" y="480" width="40" height="40" as="geometry"/>
                    </mxCell>
                </UserObject>
                <UserObject label="2,1&lt;br&gt;2,0" tags="M0" id="IuttqhlB77bu6fsDmNeb-162">
                    <mxCell style="rounded=0;whiteSpace=wrap;html=1;fillColor=#76608A;fontColor=#F0F0F0;strokeColor=#432D57;container=0;strokeWidth=2;" parent="IuttqhlB77bu6fsDmNeb-1" vertex="1">
                        <mxGeometry x="-158" y="480" width="40" height="40" as="geometry"/>
                    </mxCell>
                </UserObject>
                <UserObject label="2,1&lt;br&gt;2,1" tags="M0" id="IuttqhlB77bu6fsDmNeb-163">
                    <mxCell style="rounded=0;whiteSpace=wrap;html=1;fillColor=#76608A;fontColor=#F0F0F0;strokeColor=#432D57;container=0;strokeWidth=2;" parent="IuttqhlB77bu6fsDmNeb-1" vertex="1">
                        <mxGeometry x="-118" y="480" width="40" height="40" as="geometry"/>
                    </mxCell>
                </UserObject>
                <UserObject label="2,1&lt;br&gt;2,2" tags="M1" id="IuttqhlB77bu6fsDmNeb-164">
                    <mxCell style="rounded=0;whiteSpace=wrap;html=1;fillColor=#60A917;fontColor=#F0F0F0;strokeColor=#2D7600;container=0;strokeWidth=2;" parent="IuttqhlB77bu6fsDmNeb-1" vertex="1">
                        <mxGeometry x="-78" y="480" width="40" height="40" as="geometry"/>
                    </mxCell>
                </UserObject>
                <UserObject label="2,2&lt;br&gt;0,0" tags="M0" id="IuttqhlB77bu6fsDmNeb-165">
                    <mxCell style="rounded=0;whiteSpace=wrap;html=1;fillColor=#76608A;fontColor=#F0F0F0;strokeColor=#432D57;container=0;strokeWidth=2;" parent="IuttqhlB77bu6fsDmNeb-1" vertex="1">
                        <mxGeometry x="-398" y="520" width="40" height="40" as="geometry"/>
                    </mxCell>
                </UserObject>
                <UserObject label="2,2&lt;br&gt;0,1" tags="M0" id="IuttqhlB77bu6fsDmNeb-166">
                    <mxCell style="rounded=0;whiteSpace=wrap;html=1;fillColor=#76608A;fontColor=#F0F0F0;strokeColor=#432D57;container=0;strokeWidth=2;" parent="IuttqhlB77bu6fsDmNeb-1" vertex="1">
                        <mxGeometry x="-358" y="520" width="40" height="40" as="geometry"/>
                    </mxCell>
                </UserObject>
                <UserObject label="2,2&lt;br&gt;0,2" tags="M0" id="IuttqhlB77bu6fsDmNeb-167">
                    <mxCell style="rounded=0;whiteSpace=wrap;html=1;fillColor=#76608A;fontColor=#F0F0F0;strokeColor=#432D57;container=0;strokeWidth=2;" parent="IuttqhlB77bu6fsDmNeb-1" vertex="1">
                        <mxGeometry x="-318" y="520" width="40" height="40" as="geometry"/>
                    </mxCell>
                </UserObject>
                <UserObject label="2,2&lt;br&gt;1,0" tags="M0" id="IuttqhlB77bu6fsDmNeb-168">
                    <mxCell style="rounded=0;whiteSpace=wrap;html=1;fillColor=#76608A;fontColor=#F0F0F0;strokeColor=#432D57;container=0;strokeWidth=2;" parent="IuttqhlB77bu6fsDmNeb-1" vertex="1">
                        <mxGeometry x="-278" y="520" width="40" height="40" as="geometry"/>
                    </mxCell>
                </UserObject>
                <UserObject label="2,2&lt;br&gt;1,1" tags="M0" id="IuttqhlB77bu6fsDmNeb-169">
                    <mxCell style="rounded=0;whiteSpace=wrap;html=1;fillColor=#76608A;fontColor=#F0F0F0;strokeColor=#432D57;container=0;strokeWidth=2;" parent="IuttqhlB77bu6fsDmNeb-1" vertex="1">
                        <mxGeometry x="-238" y="520" width="40" height="40" as="geometry"/>
                    </mxCell>
                </UserObject>
                <UserObject label="2,2&lt;br&gt;1,2" tags="M0" id="IuttqhlB77bu6fsDmNeb-170">
                    <mxCell style="rounded=0;whiteSpace=wrap;html=1;fillColor=#76608A;fontColor=#F0F0F0;strokeColor=#432D57;container=0;strokeWidth=2;" parent="IuttqhlB77bu6fsDmNeb-1" vertex="1">
                        <mxGeometry x="-198" y="520" width="40" height="40" as="geometry"/>
                    </mxCell>
                </UserObject>
                <UserObject label="2,2&lt;br&gt;2,0" tags="M0" id="IuttqhlB77bu6fsDmNeb-171">
                    <mxCell style="rounded=0;whiteSpace=wrap;html=1;fillColor=#76608A;fontColor=#F0F0F0;strokeColor=#432D57;container=0;strokeWidth=2;" parent="IuttqhlB77bu6fsDmNeb-1" vertex="1">
                        <mxGeometry x="-158" y="520" width="40" height="40" as="geometry"/>
                    </mxCell>
                </UserObject>
                <UserObject label="2,2&lt;br&gt;2,1" tags="M0" id="IuttqhlB77bu6fsDmNeb-172">
                    <mxCell style="rounded=0;whiteSpace=wrap;html=1;fillColor=#76608A;fontColor=#F0F0F0;strokeColor=#432D57;container=0;strokeWidth=2;" parent="IuttqhlB77bu6fsDmNeb-1" vertex="1">
                        <mxGeometry x="-118" y="520" width="40" height="40" as="geometry"/>
                    </mxCell>
                </UserObject>
                <UserObject label="2,2&lt;br&gt;2,2" tags="M0" id="IuttqhlB77bu6fsDmNeb-173">
                    <mxCell style="rounded=0;whiteSpace=wrap;html=1;fillColor=#76608A;fontColor=#F0F0F0;strokeColor=#432D57;container=0;strokeWidth=2;" parent="IuttqhlB77bu6fsDmNeb-1" vertex="1">
                        <mxGeometry x="-78" y="520" width="40" height="40" as="geometry"/>
                    </mxCell>
                </UserObject>
                <UserObject label="0,0" tags="D1" id="IuttqhlB77bu6fsDmNeb-175">
                    <mxCell style="rounded=0;whiteSpace=wrap;html=1;container=0;fillColor=#647687;fontColor=#F0F0F0;strokeColor=#314354;strokeWidth=2;" parent="IuttqhlB77bu6fsDmNeb-1" vertex="1">
                        <mxGeometry x="-398" y="680" width="40" height="40" as="geometry"/>
                    </mxCell>
                </UserObject>
                <UserObject label="1,0" tags="D1" id="IuttqhlB77bu6fsDmNeb-176">
                    <mxCell style="rounded=0;whiteSpace=wrap;html=1;container=0;fillColor=#647687;fontColor=#F0F0F0;strokeColor=#314354;strokeWidth=2;" parent="IuttqhlB77bu6fsDmNeb-1" vertex="1">
                        <mxGeometry x="-278" y="680" width="40" height="40" as="geometry"/>
                    </mxCell>
                </UserObject>
                <UserObject label="2,0" tags="D1" id="IuttqhlB77bu6fsDmNeb-177">
                    <mxCell style="rounded=0;whiteSpace=wrap;html=1;container=0;fillColor=#647687;fontColor=#F0F0F0;strokeColor=#314354;strokeWidth=2;" parent="IuttqhlB77bu6fsDmNeb-1" vertex="1">
                        <mxGeometry x="-158" y="680" width="40" height="40" as="geometry"/>
                    </mxCell>
                </UserObject>
                <UserObject label="0,1" tags="D1" id="IuttqhlB77bu6fsDmNeb-178">
                    <mxCell style="rounded=0;whiteSpace=wrap;html=1;container=0;fillColor=#647687;fontColor=#F0F0F0;strokeColor=#314354;strokeWidth=2;" parent="IuttqhlB77bu6fsDmNeb-1" vertex="1">
                        <mxGeometry x="-358" y="680" width="40" height="40" as="geometry"/>
                    </mxCell>
                </UserObject>
                <UserObject label="1,1" tags="S1" id="IuttqhlB77bu6fsDmNeb-179">
                    <mxCell style="rounded=0;whiteSpace=wrap;html=1;fillColor=#0050EF;fontColor=#F0F0F0;strokeColor=#001DBC;container=0;strokeWidth=2;" parent="IuttqhlB77bu6fsDmNeb-1" vertex="1">
                        <mxGeometry x="-238" y="680" width="40" height="40" as="geometry"/>
                    </mxCell>
                </UserObject>
                <UserObject label="2,1" tags="D1" id="IuttqhlB77bu6fsDmNeb-180">
                    <mxCell style="rounded=0;whiteSpace=wrap;html=1;container=0;fillColor=#647687;fontColor=#F0F0F0;strokeColor=#314354;strokeWidth=2;" parent="IuttqhlB77bu6fsDmNeb-1" vertex="1">
                        <mxGeometry x="-118" y="680" width="40" height="40" as="geometry"/>
                    </mxCell>
                </UserObject>
                <UserObject label="0,2" tags="D1" id="IuttqhlB77bu6fsDmNeb-181">
                    <mxCell style="rounded=0;whiteSpace=wrap;html=1;container=0;fillColor=#647687;fontColor=#F0F0F0;strokeColor=#314354;strokeWidth=2;" parent="IuttqhlB77bu6fsDmNeb-1" vertex="1">
                        <mxGeometry x="-318" y="680" width="40" height="40" as="geometry"/>
                    </mxCell>
                </UserObject>
                <UserObject label="1,2" tags="D1" id="IuttqhlB77bu6fsDmNeb-182">
                    <mxCell style="rounded=0;whiteSpace=wrap;html=1;container=0;fillColor=#647687;fontColor=#F0F0F0;strokeColor=#314354;strokeWidth=2;" parent="IuttqhlB77bu6fsDmNeb-1" vertex="1">
                        <mxGeometry x="-198" y="680" width="40" height="40" as="geometry"/>
                    </mxCell>
                </UserObject>
                <UserObject label="2,2" tags="D1" id="IuttqhlB77bu6fsDmNeb-183">
                    <mxCell style="rounded=0;whiteSpace=wrap;html=1;container=0;fillColor=#647687;fontColor=#F0F0F0;strokeColor=#314354;strokeWidth=2;" parent="IuttqhlB77bu6fsDmNeb-1" vertex="1">
                        <mxGeometry x="-78" y="680" width="40" height="40" as="geometry"/>
                    </mxCell>
                </UserObject>
                <UserObject label="0,0" tags="D2" id="IuttqhlB77bu6fsDmNeb-184">
                    <mxCell style="rounded=0;whiteSpace=wrap;html=1;fontColor=#787878;strokeColor=#787878;container=0;strokeWidth=2;fillColor=none;" parent="IuttqhlB77bu6fsDmNeb-1" vertex="1">
                        <mxGeometry x="-398" y="640" width="40" height="40" as="geometry"/>
                    </mxCell>
                </UserObject>
                <UserObject label="1,0" tags="D2" id="IuttqhlB77bu6fsDmNeb-185">
                    <mxCell style="rounded=0;whiteSpace=wrap;html=1;fontColor=#787878;strokeColor=#787878;container=0;strokeWidth=2;fillColor=none;" parent="IuttqhlB77bu6fsDmNeb-1" vertex="1">
                        <mxGeometry x="-278" y="640" width="40" height="40" as="geometry"/>
                    </mxCell>
                </UserObject>
                <UserObject label="2,0" tags="D2" id="IuttqhlB77bu6fsDmNeb-186">
                    <mxCell style="rounded=0;whiteSpace=wrap;html=1;fontColor=#787878;strokeColor=#787878;container=0;strokeWidth=2;fillColor=none;" parent="IuttqhlB77bu6fsDmNeb-1" vertex="1">
                        <mxGeometry x="-158" y="640" width="40" height="40" as="geometry"/>
                    </mxCell>
                </UserObject>
                <UserObject label="0,1" tags="D2" id="IuttqhlB77bu6fsDmNeb-187">
                    <mxCell style="rounded=0;whiteSpace=wrap;html=1;fontColor=#787878;strokeColor=#787878;container=0;strokeWidth=2;fillColor=none;" parent="IuttqhlB77bu6fsDmNeb-1" vertex="1">
                        <mxGeometry x="-358" y="640" width="40" height="40" as="geometry"/>
                    </mxCell>
                </UserObject>
                <UserObject label="1,1" tags="S2" id="IuttqhlB77bu6fsDmNeb-188">
                    <mxCell style="rounded=0;whiteSpace=wrap;html=1;strokeColor=#6C8EBF;fillColor=none;container=0;labelBackgroundColor=none;labelBorderColor=none;fontColor=#787878;strokeWidth=2;" parent="IuttqhlB77bu6fsDmNeb-1" vertex="1">
                        <mxGeometry x="-238" y="640" width="40" height="40" as="geometry"/>
                    </mxCell>
                </UserObject>
                <UserObject label="2,1" tags="D2" id="IuttqhlB77bu6fsDmNeb-189">
                    <mxCell style="rounded=0;whiteSpace=wrap;html=1;fontColor=#787878;strokeColor=#787878;container=0;strokeWidth=2;fillColor=none;" parent="IuttqhlB77bu6fsDmNeb-1" vertex="1">
                        <mxGeometry x="-118" y="640" width="40" height="40" as="geometry"/>
                    </mxCell>
                </UserObject>
                <UserObject label="0,2" tags="D2" id="IuttqhlB77bu6fsDmNeb-190">
                    <mxCell style="rounded=0;whiteSpace=wrap;html=1;fontColor=#787878;strokeColor=#787878;container=0;strokeWidth=2;fillColor=none;" parent="IuttqhlB77bu6fsDmNeb-1" vertex="1">
                        <mxGeometry x="-318" y="640" width="40" height="40" as="geometry"/>
                    </mxCell>
                </UserObject>
                <UserObject label="1,2" tags="D2" id="IuttqhlB77bu6fsDmNeb-191">
                    <mxCell style="rounded=0;whiteSpace=wrap;html=1;fontColor=#787878;strokeColor=#787878;container=0;strokeWidth=2;fillColor=none;" parent="IuttqhlB77bu6fsDmNeb-1" vertex="1">
                        <mxGeometry x="-198" y="640" width="40" height="40" as="geometry"/>
                    </mxCell>
                </UserObject>
                <UserObject label="2,2" tags="D2" id="IuttqhlB77bu6fsDmNeb-192">
                    <mxCell style="rounded=0;whiteSpace=wrap;html=1;fontColor=#787878;strokeColor=#787878;container=0;strokeWidth=2;fillColor=none;" parent="IuttqhlB77bu6fsDmNeb-1" vertex="1">
                        <mxGeometry x="-78" y="640" width="40" height="40" as="geometry"/>
                    </mxCell>
                </UserObject>
                <mxCell id="IuttqhlB77bu6fsDmNeb-237" value="X̂" style="whiteSpace=wrap;html=1;rounded=0;strokeColor=none;fontSize=24;fontColor=default;labelBackgroundColor=none;fillColor=none;container=0;" parent="IuttqhlB77bu6fsDmNeb-1" vertex="1">
                    <mxGeometry x="-238" y="760" width="40" height="40" as="geometry"/>
                </mxCell>
                <UserObject label="0,0" tags="D2" id="IuttqhlB77bu6fsDmNeb-219">
                    <mxCell style="rounded=0;whiteSpace=wrap;html=1;strokeColor=#787878;container=0;strokeWidth=2;fillColor=none;fontColor=#787878;" parent="IuttqhlB77bu6fsDmNeb-1" vertex="1">
                        <mxGeometry x="-293" y="790" width="40" height="40" as="geometry"/>
                    </mxCell>
                </UserObject>
                <UserObject label="1,0" tags="D2" id="IuttqhlB77bu6fsDmNeb-220">
                    <mxCell style="rounded=0;whiteSpace=wrap;html=1;strokeColor=#787878;container=0;strokeWidth=2;fillColor=none;fontColor=#787878;" parent="IuttqhlB77bu6fsDmNeb-1" vertex="1">
                        <mxGeometry x="-293" y="830" width="40" height="40" as="geometry"/>
                    </mxCell>
                </UserObject>
                <UserObject label="2,0" tags="D2" id="IuttqhlB77bu6fsDmNeb-221">
                    <mxCell style="rounded=0;whiteSpace=wrap;html=1;strokeColor=#787878;container=0;strokeWidth=2;fillColor=none;fontColor=#787878;" parent="IuttqhlB77bu6fsDmNeb-1" vertex="1">
                        <mxGeometry x="-293" y="870" width="40" height="40" as="geometry"/>
                    </mxCell>
                </UserObject>
                <UserObject label="0,1" tags="D2" id="IuttqhlB77bu6fsDmNeb-222">
                    <mxCell style="rounded=0;whiteSpace=wrap;html=1;strokeColor=#787878;container=0;strokeWidth=2;fillColor=none;fontColor=#787878;" parent="IuttqhlB77bu6fsDmNeb-1" vertex="1">
                        <mxGeometry x="-253" y="790" width="40" height="40" as="geometry"/>
                    </mxCell>
                </UserObject>
                <UserObject label="1,1" tags="S2" id="IuttqhlB77bu6fsDmNeb-223">
                    <mxCell style="rounded=0;whiteSpace=wrap;html=1;strokeColor=#6C8EBF;container=0;fillColor=none;labelBackgroundColor=none;labelBorderColor=none;fontColor=#787878;strokeWidth=2;" parent="IuttqhlB77bu6fsDmNeb-1" vertex="1">
                        <mxGeometry x="-253" y="830" width="40" height="40" as="geometry"/>
                    </mxCell>
                </UserObject>
                <UserObject label="2,1" tags="D2" id="IuttqhlB77bu6fsDmNeb-224">
                    <mxCell style="rounded=0;whiteSpace=wrap;html=1;strokeColor=#787878;container=0;strokeWidth=2;fillColor=none;fontColor=#787878;" parent="IuttqhlB77bu6fsDmNeb-1" vertex="1">
                        <mxGeometry x="-253" y="870" width="40" height="40" as="geometry"/>
                    </mxCell>
                </UserObject>
                <UserObject label="0,2" tags="D2" id="IuttqhlB77bu6fsDmNeb-225">
                    <mxCell style="rounded=0;whiteSpace=wrap;html=1;strokeColor=#787878;container=0;strokeWidth=2;fillColor=none;fontColor=#787878;" parent="IuttqhlB77bu6fsDmNeb-1" vertex="1">
                        <mxGeometry x="-213" y="790" width="40" height="40" as="geometry"/>
                    </mxCell>
                </UserObject>
                <UserObject label="1,2" tags="D2" id="IuttqhlB77bu6fsDmNeb-226">
                    <mxCell style="rounded=0;whiteSpace=wrap;html=1;strokeColor=#787878;container=0;strokeWidth=2;fillColor=none;fontColor=#787878;" parent="IuttqhlB77bu6fsDmNeb-1" vertex="1">
                        <mxGeometry x="-213" y="830" width="40" height="40" as="geometry"/>
                    </mxCell>
                </UserObject>
                <UserObject label="2,2" tags="D2" id="IuttqhlB77bu6fsDmNeb-227">
                    <mxCell style="rounded=0;whiteSpace=wrap;html=1;strokeColor=#787878;container=0;strokeWidth=2;fillColor=none;fontColor=#787878;" parent="IuttqhlB77bu6fsDmNeb-1" vertex="1">
                        <mxGeometry x="-213" y="870" width="40" height="40" as="geometry"/>
                    </mxCell>
                </UserObject>
                <mxCell id="nPAKp_ya5DqfH2do-CBU-0" value="" style="group;fillColor=default;rounded=0;" parent="IuttqhlB77bu6fsDmNeb-1" vertex="1" connectable="0">
                    <mxGeometry x="-280" y="800" width="120" height="120" as="geometry"/>
                </mxCell>
                <UserObject label="0,0" tags="D1" id="IuttqhlB77bu6fsDmNeb-228">
                    <mxCell style="rounded=0;whiteSpace=wrap;html=1;container=0;fillColor=#647687;fontColor=#F0F0F0;strokeColor=#314354;strokeWidth=2;" parent="nPAKp_ya5DqfH2do-CBU-0" vertex="1">
                        <mxGeometry width="40" height="40" as="geometry"/>
                    </mxCell>
                </UserObject>
                <UserObject label="1,0" tags="D1" id="IuttqhlB77bu6fsDmNeb-229">
                    <mxCell style="rounded=0;whiteSpace=wrap;html=1;container=0;fillColor=#647687;fontColor=#F0F0F0;strokeColor=#314354;strokeWidth=2;" parent="nPAKp_ya5DqfH2do-CBU-0" vertex="1">
                        <mxGeometry y="40" width="40" height="40" as="geometry"/>
                    </mxCell>
                </UserObject>
                <UserObject label="2,0" tags="D1" id="IuttqhlB77bu6fsDmNeb-230">
                    <mxCell style="rounded=0;whiteSpace=wrap;html=1;container=0;fillColor=#647687;fontColor=#F0F0F0;strokeColor=#314354;strokeWidth=2;" parent="nPAKp_ya5DqfH2do-CBU-0" vertex="1">
                        <mxGeometry y="80" width="40" height="40" as="geometry"/>
                    </mxCell>
                </UserObject>
                <UserObject label="0,1" tags="D1" id="IuttqhlB77bu6fsDmNeb-231">
                    <mxCell style="rounded=0;whiteSpace=wrap;html=1;container=0;fillColor=#647687;fontColor=#F0F0F0;strokeColor=#314354;strokeWidth=2;" parent="nPAKp_ya5DqfH2do-CBU-0" vertex="1">
                        <mxGeometry x="40" width="40" height="40" as="geometry"/>
                    </mxCell>
                </UserObject>
                <UserObject label="1,1" tags="S1" id="IuttqhlB77bu6fsDmNeb-232">
                    <mxCell style="rounded=0;whiteSpace=wrap;html=1;fillColor=#0050EF;strokeColor=#001DBC;fontColor=#F0F0F0;container=0;strokeWidth=2;" parent="nPAKp_ya5DqfH2do-CBU-0" vertex="1">
                        <mxGeometry x="40" y="40" width="40" height="40" as="geometry"/>
                    </mxCell>
                </UserObject>
                <UserObject label="2,1" tags="D1" id="IuttqhlB77bu6fsDmNeb-233">
                    <mxCell style="rounded=0;whiteSpace=wrap;html=1;container=0;fillColor=#647687;fontColor=#F0F0F0;strokeColor=#314354;strokeWidth=2;" parent="nPAKp_ya5DqfH2do-CBU-0" vertex="1">
                        <mxGeometry x="40" y="80" width="40" height="40" as="geometry"/>
                    </mxCell>
                </UserObject>
                <UserObject label="0,2" tags="D1" id="IuttqhlB77bu6fsDmNeb-234">
                    <mxCell style="rounded=0;whiteSpace=wrap;html=1;container=0;fillColor=#647687;fontColor=#F0F0F0;strokeColor=#314354;strokeWidth=2;" parent="nPAKp_ya5DqfH2do-CBU-0" vertex="1">
                        <mxGeometry x="80" width="40" height="40" as="geometry"/>
                    </mxCell>
                </UserObject>
                <UserObject label="1,2" tags="D1" id="IuttqhlB77bu6fsDmNeb-235">
                    <mxCell style="rounded=0;whiteSpace=wrap;html=1;container=0;fillColor=#647687;fontColor=#F0F0F0;strokeColor=#314354;strokeWidth=2;" parent="nPAKp_ya5DqfH2do-CBU-0" vertex="1">
                        <mxGeometry x="80" y="40" width="40" height="40" as="geometry"/>
                    </mxCell>
                </UserObject>
                <UserObject label="2,2" tags="D1" id="IuttqhlB77bu6fsDmNeb-236">
                    <mxCell style="rounded=0;whiteSpace=wrap;html=1;container=0;fillColor=#647687;fontColor=#F0F0F0;strokeColor=#314354;strokeWidth=2;" parent="nPAKp_ya5DqfH2do-CBU-0" vertex="1">
                        <mxGeometry x="80" y="80" width="40" height="40" as="geometry"/>
                    </mxCell>
                </UserObject>
                <mxCell id="nPAKp_ya5DqfH2do-CBU-1" value="" style="group;fillColor=default;rounded=0;" parent="IuttqhlB77bu6fsDmNeb-1" vertex="1" connectable="0">
                    <mxGeometry x="-800" y="480" width="120" height="120" as="geometry"/>
                </mxCell>
                <UserObject label="0,0" tags="S1" id="IuttqhlB77bu6fsDmNeb-42">
                    <mxCell style="rounded=0;whiteSpace=wrap;html=1;fillColor=#0050EF;fontColor=#F0F0F0;strokeColor=#001DBC;container=0;strokeWidth=2;" parent="nPAKp_ya5DqfH2do-CBU-1" vertex="1">
                        <mxGeometry width="40" height="40" as="geometry"/>
                    </mxCell>
                </UserObject>
                <UserObject label="1,0" tags="S1" id="IuttqhlB77bu6fsDmNeb-43">
                    <mxCell style="rounded=0;whiteSpace=wrap;html=1;fillColor=#0050EF;fontColor=#F0F0F0;strokeColor=#001DBC;container=0;strokeWidth=2;" parent="nPAKp_ya5DqfH2do-CBU-1" vertex="1">
                        <mxGeometry y="40" width="40" height="40" as="geometry"/>
                    </mxCell>
                </UserObject>
                <UserObject label="2,0" tags="D1" id="IuttqhlB77bu6fsDmNeb-44">
                    <mxCell style="rounded=0;whiteSpace=wrap;html=1;container=0;fillColor=#647687;fontColor=#F0F0F0;strokeColor=#314354;strokeWidth=2;" parent="nPAKp_ya5DqfH2do-CBU-1" vertex="1">
                        <mxGeometry y="80" width="40" height="40" as="geometry"/>
                    </mxCell>
                </UserObject>
                <UserObject label="0,1" tags="S1" id="IuttqhlB77bu6fsDmNeb-45">
                    <mxCell style="rounded=0;whiteSpace=wrap;html=1;fillColor=#0050EF;fontColor=#F0F0F0;strokeColor=#001DBC;container=0;strokeWidth=2;" parent="nPAKp_ya5DqfH2do-CBU-1" vertex="1">
                        <mxGeometry x="40" width="40" height="40" as="geometry"/>
                    </mxCell>
                </UserObject>
                <UserObject label="1,1" tags="D1" id="IuttqhlB77bu6fsDmNeb-46">
                    <mxCell style="rounded=0;whiteSpace=wrap;html=1;container=0;fillColor=#647687;fontColor=#F0F0F0;strokeColor=#314354;strokeWidth=2;" parent="nPAKp_ya5DqfH2do-CBU-1" vertex="1">
                        <mxGeometry x="40" y="40" width="40" height="40" as="geometry"/>
                    </mxCell>
                </UserObject>
                <UserObject label="2,1" tags="D1" id="IuttqhlB77bu6fsDmNeb-47">
                    <mxCell style="rounded=0;whiteSpace=wrap;html=1;container=0;fillColor=#647687;fontColor=#F0F0F0;strokeColor=#314354;strokeWidth=2;" parent="nPAKp_ya5DqfH2do-CBU-1" vertex="1">
                        <mxGeometry x="40" y="80" width="40" height="40" as="geometry"/>
                    </mxCell>
                </UserObject>
                <UserObject label="0,2" tags="S1" id="IuttqhlB77bu6fsDmNeb-48">
                    <mxCell style="rounded=0;whiteSpace=wrap;html=1;fillColor=#0050EF;fontColor=#F0F0F0;strokeColor=#001DBC;container=0;strokeWidth=2;" parent="nPAKp_ya5DqfH2do-CBU-1" vertex="1">
                        <mxGeometry x="80" width="40" height="40" as="geometry"/>
                    </mxCell>
                </UserObject>
                <UserObject label="1,2" tags="D1" id="IuttqhlB77bu6fsDmNeb-49">
                    <mxCell style="rounded=0;whiteSpace=wrap;html=1;container=0;fillColor=#647687;fontColor=#F0F0F0;strokeColor=#314354;strokeWidth=2;" parent="nPAKp_ya5DqfH2do-CBU-1" vertex="1">
                        <mxGeometry x="80" y="40" width="40" height="40" as="geometry"/>
                    </mxCell>
                </UserObject>
                <UserObject label="2,2" tags="D1" id="IuttqhlB77bu6fsDmNeb-50">
                    <mxCell style="rounded=0;whiteSpace=wrap;html=1;container=0;fillColor=#647687;fontColor=#F0F0F0;strokeColor=#314354;strokeWidth=2;" parent="nPAKp_ya5DqfH2do-CBU-1" vertex="1">
                        <mxGeometry x="80" y="80" width="40" height="40" as="geometry"/>
                    </mxCell>
                </UserObject>
                <UserObject label="" tags="Reshape" id="1">
                    <mxCell style="edgeStyle=none;html=1;exitX=0;exitY=0.25;exitDx=0;exitDy=0;entryX=1;entryY=0.25;entryDx=0;entryDy=0;dashed=1;strokeWidth=3;fontColor=default;fillColor=#0050ef;strokeColor=#001DBC;" edge="1" parent="IuttqhlB77bu6fsDmNeb-1" source="IuttqhlB77bu6fsDmNeb-239" target="IuttqhlB77bu6fsDmNeb-239">
                        <mxGeometry relative="1" as="geometry"/>
                    </mxCell>
                </UserObject>
                <mxCell id="8" value="&lt;div style=&quot;&quot;&gt;&lt;font style=&quot;font-size: 23px;&quot;&gt;MatMul&lt;/font&gt;&lt;/div&gt;&lt;blockquote style=&quot;margin: 0 0 0 40px; border: none; padding: 0px;&quot;&gt;&lt;/blockquote&gt;&lt;blockquote style=&quot;margin: 0 0 0 40px; border: none; padding: 0px;&quot;&gt;&lt;/blockquote&gt;" style="whiteSpace=wrap;html=1;hachureGap=4;fontFamily=Courier New;fontSize=12;align=left;labelBackgroundColor=none;labelBorderColor=none;portConstraintRotation=0;connectable=1;fixDash=0;container=0;dropTarget=0;collapsible=0;metaEdit=0;movableLabel=1;autosize=0;rounded=0;fillColor=none;strokeColor=none;fontColor=default;" vertex="1" parent="IuttqhlB77bu6fsDmNeb-1">
                    <mxGeometry x="-803" y="110" width="102" height="50" as="geometry">
                        <mxPoint x="-2" y="11" as="offset"/>
                    </mxGeometry>
                </mxCell>
                <UserObject label="" tags="MatMul" id="9">
                    <mxCell style="edgeStyle=none;html=1;exitX=0;exitY=0.25;exitDx=0;exitDy=0;entryX=1;entryY=0.25;entryDx=0;entryDy=0;strokeWidth=3;fontSize=23;fontColor=default;fillColor=#a20025;strokeColor=#6F0000;" edge="1" parent="IuttqhlB77bu6fsDmNeb-1" source="8" target="8">
                        <mxGeometry relative="1" as="geometry"/>
                    </mxCell>
                </UserObject>
            </root>
        </mxGraphModel>
    </diagram>
</mxfile>